G04 EAGLE Gerber RS-274X export*
G75*
%MOMM*%
%FSLAX34Y34*%
%LPD*%
%INTop Copper*%
%IPPOS*%
%AMOC8*
5,1,8,0,0,1.08239X$1,22.5*%
G01*
%ADD10C,1.524000*%
%ADD11R,0.900000X2.250000*%
%ADD12R,0.900000X2.800000*%
%ADD13C,0.304800*%
%ADD14C,0.152400*%

G36*
X38882Y-25396D02*
X38882Y-25396D01*
X38901Y-25398D01*
X39003Y-25376D01*
X39105Y-25359D01*
X39122Y-25350D01*
X39142Y-25346D01*
X39231Y-25293D01*
X39322Y-25244D01*
X39336Y-25230D01*
X39353Y-25220D01*
X39420Y-25141D01*
X39491Y-25066D01*
X39500Y-25048D01*
X39513Y-25033D01*
X39552Y-24937D01*
X39595Y-24843D01*
X39597Y-24823D01*
X39605Y-24805D01*
X39623Y-24638D01*
X39623Y-15354D01*
X40479Y-15489D01*
X42000Y-15984D01*
X43251Y-16621D01*
X43314Y-16641D01*
X43374Y-16670D01*
X43431Y-16678D01*
X43485Y-16696D01*
X43552Y-16695D01*
X43617Y-16704D01*
X43674Y-16693D01*
X43731Y-16692D01*
X43794Y-16670D01*
X43859Y-16657D01*
X43909Y-16629D01*
X43963Y-16610D01*
X44015Y-16569D01*
X44073Y-16536D01*
X44111Y-16494D01*
X44157Y-16458D01*
X44193Y-16403D01*
X44237Y-16353D01*
X44274Y-16280D01*
X44292Y-16253D01*
X44297Y-16233D01*
X44312Y-16203D01*
X46192Y-11038D01*
X46192Y-11034D01*
X46195Y-11030D01*
X46202Y-11000D01*
X46209Y-10983D01*
X46213Y-10950D01*
X46232Y-10866D01*
X47492Y-88D01*
X47492Y-84D01*
X47493Y-79D01*
X47492Y88D01*
X46232Y10866D01*
X46231Y10871D01*
X46231Y10875D01*
X46192Y11038D01*
X44514Y15649D01*
X44496Y15681D01*
X44485Y15716D01*
X44436Y15787D01*
X44393Y15863D01*
X44366Y15888D01*
X44345Y15918D01*
X44275Y15970D01*
X44211Y16028D01*
X44177Y16043D01*
X44148Y16065D01*
X44065Y16092D01*
X43985Y16126D01*
X43949Y16130D01*
X43914Y16141D01*
X43827Y16140D01*
X43740Y16148D01*
X43705Y16139D01*
X43668Y16139D01*
X43507Y16092D01*
X40222Y14731D01*
X35978Y14731D01*
X32057Y16355D01*
X29055Y19357D01*
X28013Y21873D01*
X27962Y21956D01*
X27916Y22042D01*
X27898Y22060D01*
X27884Y22082D01*
X27808Y22144D01*
X27738Y22211D01*
X27714Y22222D01*
X27694Y22239D01*
X27603Y22274D01*
X27515Y22315D01*
X27489Y22317D01*
X27465Y22327D01*
X27367Y22331D01*
X27271Y22342D01*
X27245Y22336D01*
X27219Y22337D01*
X27125Y22310D01*
X27030Y22289D01*
X27008Y22276D01*
X26983Y22269D01*
X26903Y22213D01*
X26819Y22163D01*
X26802Y22143D01*
X26781Y22128D01*
X26722Y22050D01*
X26659Y21976D01*
X26649Y21952D01*
X26634Y21931D01*
X26604Y21839D01*
X26567Y21748D01*
X26564Y21716D01*
X26558Y21697D01*
X26558Y21664D01*
X26549Y21581D01*
X26549Y14487D01*
X24763Y12701D01*
X13237Y12701D01*
X12745Y13193D01*
X12690Y13233D01*
X12642Y13280D01*
X12591Y13304D01*
X12545Y13337D01*
X12481Y13357D01*
X12420Y13386D01*
X12364Y13393D01*
X12310Y13409D01*
X12243Y13407D01*
X12176Y13416D01*
X12097Y13404D01*
X12065Y13403D01*
X12045Y13396D01*
X12010Y13390D01*
X11334Y13209D01*
X8023Y13209D01*
X8023Y26238D01*
X8020Y26258D01*
X8022Y26277D01*
X8000Y26379D01*
X7983Y26481D01*
X7974Y26498D01*
X7970Y26518D01*
X7917Y26607D01*
X7868Y26698D01*
X7854Y26712D01*
X7844Y26729D01*
X7765Y26796D01*
X7690Y26867D01*
X7672Y26876D01*
X7657Y26889D01*
X7561Y26928D01*
X7467Y26971D01*
X7447Y26973D01*
X7429Y26981D01*
X7262Y26999D01*
X5738Y26999D01*
X5718Y26996D01*
X5699Y26998D01*
X5597Y26976D01*
X5495Y26959D01*
X5478Y26950D01*
X5458Y26946D01*
X5369Y26893D01*
X5278Y26844D01*
X5264Y26830D01*
X5247Y26820D01*
X5180Y26741D01*
X5109Y26666D01*
X5100Y26648D01*
X5087Y26633D01*
X5048Y26537D01*
X5005Y26443D01*
X5003Y26423D01*
X4995Y26405D01*
X4977Y26238D01*
X4977Y13209D01*
X1810Y13209D01*
X1790Y13206D01*
X1771Y13208D01*
X1669Y13186D01*
X1567Y13170D01*
X1550Y13160D01*
X1530Y13156D01*
X1441Y13103D01*
X1350Y13054D01*
X1336Y13040D01*
X1319Y13030D01*
X1252Y12951D01*
X1180Y12876D01*
X1172Y12858D01*
X1159Y12843D01*
X1120Y12747D01*
X1077Y12653D01*
X1075Y12633D01*
X1067Y12615D01*
X1049Y12448D01*
X1049Y8937D01*
X-737Y7151D01*
X-12263Y7151D01*
X-14049Y8937D01*
X-14049Y11940D01*
X-14052Y11960D01*
X-14050Y11979D01*
X-14072Y12081D01*
X-14088Y12183D01*
X-14098Y12200D01*
X-14102Y12220D01*
X-14155Y12309D01*
X-14204Y12400D01*
X-14218Y12414D01*
X-14228Y12431D01*
X-14307Y12498D01*
X-14382Y12570D01*
X-14400Y12578D01*
X-14415Y12591D01*
X-14511Y12630D01*
X-14605Y12673D01*
X-14625Y12675D01*
X-14643Y12683D01*
X-14810Y12701D01*
X-24763Y12701D01*
X-26549Y14487D01*
X-26549Y21581D01*
X-26564Y21678D01*
X-26574Y21774D01*
X-26584Y21798D01*
X-26588Y21824D01*
X-26634Y21910D01*
X-26674Y21999D01*
X-26691Y22018D01*
X-26704Y22042D01*
X-26774Y22109D01*
X-26840Y22180D01*
X-26863Y22193D01*
X-26882Y22211D01*
X-26970Y22252D01*
X-27056Y22299D01*
X-27081Y22304D01*
X-27105Y22315D01*
X-27202Y22325D01*
X-27298Y22343D01*
X-27324Y22339D01*
X-27349Y22342D01*
X-27445Y22321D01*
X-27541Y22307D01*
X-27564Y22295D01*
X-27590Y22289D01*
X-27673Y22239D01*
X-27760Y22195D01*
X-27779Y22177D01*
X-27801Y22163D01*
X-27864Y22089D01*
X-27932Y22020D01*
X-27948Y21991D01*
X-27961Y21976D01*
X-27973Y21946D01*
X-28013Y21873D01*
X-29055Y19357D01*
X-32057Y16355D01*
X-35978Y14731D01*
X-40222Y14731D01*
X-43744Y16190D01*
X-43823Y16209D01*
X-43899Y16236D01*
X-43942Y16236D01*
X-43984Y16246D01*
X-44064Y16239D01*
X-44144Y16240D01*
X-44186Y16227D01*
X-44229Y16223D01*
X-44302Y16190D01*
X-44379Y16166D01*
X-44414Y16141D01*
X-44453Y16123D01*
X-44513Y16069D01*
X-44578Y16021D01*
X-44603Y15986D01*
X-44634Y15957D01*
X-44673Y15886D01*
X-44720Y15820D01*
X-44739Y15767D01*
X-44753Y15741D01*
X-44758Y15713D01*
X-44776Y15662D01*
X-46409Y8771D01*
X-46412Y8735D01*
X-46423Y8699D01*
X-46421Y8612D01*
X-46427Y8526D01*
X-46417Y8490D01*
X-46417Y8453D01*
X-46387Y8372D01*
X-46365Y8288D01*
X-46345Y8257D01*
X-46332Y8222D01*
X-46278Y8155D01*
X-46230Y8082D01*
X-46201Y8059D01*
X-46178Y8030D01*
X-46106Y7983D01*
X-46037Y7930D01*
X-46002Y7917D01*
X-45971Y7897D01*
X-45887Y7876D01*
X-45806Y7847D01*
X-45769Y7846D01*
X-45733Y7837D01*
X-45647Y7844D01*
X-45560Y7842D01*
X-45524Y7853D01*
X-45488Y7856D01*
X-45408Y7890D01*
X-45325Y7916D01*
X-45295Y7938D01*
X-45261Y7953D01*
X-45130Y8057D01*
X-44143Y9045D01*
X-40222Y10669D01*
X-35978Y10669D01*
X-32057Y9045D01*
X-29055Y6043D01*
X-27431Y2122D01*
X-27431Y-2122D01*
X-28161Y-3885D01*
X-28188Y-3999D01*
X-28217Y-4112D01*
X-28216Y-4118D01*
X-28218Y-4124D01*
X-28207Y-4241D01*
X-28198Y-4357D01*
X-28195Y-4363D01*
X-28194Y-4369D01*
X-28147Y-4476D01*
X-28101Y-4583D01*
X-28097Y-4589D01*
X-28094Y-4594D01*
X-28082Y-4608D01*
X-27996Y-4714D01*
X-24555Y-8156D01*
X-24481Y-8209D01*
X-24412Y-8268D01*
X-24382Y-8280D01*
X-24355Y-8299D01*
X-24268Y-8326D01*
X-24183Y-8360D01*
X-24143Y-8365D01*
X-24120Y-8372D01*
X-24088Y-8371D01*
X-24017Y-8379D01*
X3562Y-8379D01*
X6017Y-10834D01*
X7662Y-12478D01*
X7736Y-12531D01*
X7805Y-12591D01*
X7835Y-12603D01*
X7861Y-12622D01*
X7949Y-12649D01*
X8033Y-12683D01*
X8074Y-12687D01*
X8097Y-12694D01*
X8129Y-12693D01*
X8200Y-12701D01*
X12278Y-12701D01*
X12328Y-12733D01*
X12411Y-12794D01*
X12430Y-12799D01*
X12447Y-12810D01*
X12548Y-12836D01*
X12646Y-12866D01*
X12666Y-12866D01*
X12686Y-12870D01*
X12789Y-12862D01*
X12892Y-12860D01*
X12911Y-12853D01*
X12931Y-12851D01*
X13026Y-12811D01*
X13123Y-12775D01*
X13139Y-12763D01*
X13157Y-12755D01*
X13224Y-12701D01*
X24763Y-12701D01*
X26549Y-14487D01*
X26549Y-23707D01*
X26559Y-23770D01*
X26559Y-23834D01*
X26579Y-23891D01*
X26588Y-23950D01*
X26618Y-24006D01*
X26639Y-24067D01*
X26676Y-24115D01*
X26704Y-24167D01*
X26750Y-24211D01*
X26789Y-24262D01*
X26838Y-24296D01*
X26882Y-24337D01*
X26940Y-24364D01*
X26993Y-24399D01*
X27051Y-24415D01*
X27105Y-24440D01*
X27168Y-24447D01*
X27230Y-24464D01*
X27290Y-24461D01*
X27349Y-24468D01*
X27412Y-24454D01*
X27476Y-24450D01*
X27531Y-24428D01*
X27590Y-24415D01*
X27645Y-24382D01*
X27704Y-24359D01*
X27749Y-24320D01*
X27801Y-24289D01*
X27842Y-24241D01*
X27891Y-24199D01*
X27922Y-24148D01*
X27961Y-24102D01*
X27985Y-24043D01*
X28018Y-23988D01*
X28040Y-23905D01*
X28053Y-23874D01*
X28055Y-23850D01*
X28062Y-23826D01*
X28189Y-23021D01*
X28684Y-21500D01*
X29410Y-20075D01*
X30350Y-18781D01*
X31481Y-17650D01*
X32775Y-16710D01*
X34200Y-15984D01*
X35721Y-15489D01*
X36577Y-15354D01*
X36577Y-24638D01*
X36580Y-24658D01*
X36578Y-24677D01*
X36600Y-24779D01*
X36617Y-24881D01*
X36626Y-24898D01*
X36630Y-24918D01*
X36683Y-25007D01*
X36732Y-25098D01*
X36746Y-25112D01*
X36756Y-25129D01*
X36835Y-25196D01*
X36910Y-25267D01*
X36928Y-25276D01*
X36943Y-25289D01*
X37039Y-25327D01*
X37133Y-25371D01*
X37153Y-25373D01*
X37171Y-25381D01*
X37338Y-25399D01*
X38862Y-25399D01*
X38882Y-25396D01*
G37*
D10*
X38100Y-25400D03*
D11*
X-19000Y-27000D03*
X-6500Y-27000D03*
X6500Y-27000D03*
X19000Y-27000D03*
X-19000Y27000D03*
X6500Y27000D03*
X19000Y27000D03*
D12*
X-6500Y24200D03*
D10*
X-38100Y25400D03*
X-38100Y0D03*
X38100Y25400D03*
X-38100Y-25400D03*
D13*
X-19000Y-27000D02*
X-6500Y-27000D01*
X-19000Y-27000D02*
X-36500Y-27000D01*
X-38100Y-25400D01*
D14*
X6500Y-27000D02*
X6500Y-16706D01*
X-25911Y-12189D02*
X-38100Y0D01*
X1984Y-12189D02*
X6500Y-16706D01*
X1984Y-12189D02*
X-25911Y-12189D01*
X18970Y27030D02*
X19000Y27000D01*
X18970Y27030D02*
X18970Y37109D01*
X15542Y40536D01*
X-24592Y40536D01*
X-38100Y27028D02*
X-38100Y25400D01*
X-38100Y27028D02*
X-24592Y40536D01*
M02*
