G04 EAGLE Gerber RS-274X export*
G75*
%MOMM*%
%FSLAX34Y34*%
%LPD*%
%INBottom Copper*%
%IPPOS*%
%AMOC8*
5,1,8,0,0,1.08239X$1,22.5*%
G01*
%ADD10R,1.300000X1.500000*%
%ADD11C,1.524000*%
%ADD12C,0.304800*%
%ADD13C,0.152400*%

G36*
X-12245Y-45727D02*
X-12245Y-45727D01*
X-12136Y-45729D01*
X-12122Y-45724D01*
X-12108Y-45724D01*
X-12006Y-45687D01*
X-11902Y-45653D01*
X-11891Y-45644D01*
X-11877Y-45639D01*
X-11792Y-45572D01*
X-11705Y-45507D01*
X-11696Y-45495D01*
X-11685Y-45486D01*
X-11626Y-45394D01*
X-11564Y-45305D01*
X-11560Y-45291D01*
X-11552Y-45279D01*
X-11525Y-45174D01*
X-11495Y-45069D01*
X-11495Y-45054D01*
X-11492Y-45040D01*
X-11500Y-44932D01*
X-11504Y-44823D01*
X-11510Y-44810D01*
X-11511Y-44795D01*
X-11553Y-44695D01*
X-11592Y-44594D01*
X-11601Y-44582D01*
X-11607Y-44569D01*
X-11712Y-44438D01*
X-11979Y-44170D01*
X-14162Y-41988D01*
X-14162Y-41310D01*
X-14165Y-41290D01*
X-14163Y-41271D01*
X-14185Y-41169D01*
X-14201Y-41067D01*
X-14211Y-41050D01*
X-14215Y-41030D01*
X-14268Y-40941D01*
X-14316Y-40850D01*
X-14331Y-40836D01*
X-14341Y-40819D01*
X-14420Y-40752D01*
X-14495Y-40680D01*
X-14513Y-40672D01*
X-14528Y-40659D01*
X-14624Y-40620D01*
X-14718Y-40577D01*
X-14738Y-40575D01*
X-14756Y-40567D01*
X-14923Y-40549D01*
X-17263Y-40549D01*
X-19049Y-38763D01*
X-19049Y-21237D01*
X-17263Y-19451D01*
X-1737Y-19451D01*
X-179Y-21009D01*
X-163Y-21021D01*
X-150Y-21037D01*
X-63Y-21093D01*
X21Y-21153D01*
X40Y-21159D01*
X57Y-21170D01*
X157Y-21195D01*
X256Y-21225D01*
X276Y-21225D01*
X295Y-21230D01*
X398Y-21222D01*
X502Y-21219D01*
X520Y-21212D01*
X540Y-21210D01*
X635Y-21170D01*
X733Y-21134D01*
X748Y-21122D01*
X767Y-21114D01*
X898Y-21009D01*
X1440Y-20467D01*
X2019Y-20132D01*
X2666Y-19959D01*
X7977Y-19959D01*
X7977Y-29238D01*
X7980Y-29258D01*
X7978Y-29277D01*
X8000Y-29379D01*
X8017Y-29481D01*
X8026Y-29498D01*
X8030Y-29518D01*
X8083Y-29607D01*
X8132Y-29698D01*
X8146Y-29712D01*
X8156Y-29729D01*
X8235Y-29796D01*
X8310Y-29867D01*
X8328Y-29876D01*
X8343Y-29889D01*
X8439Y-29928D01*
X8533Y-29971D01*
X8553Y-29973D01*
X8571Y-29981D01*
X8738Y-29999D01*
X9501Y-29999D01*
X9501Y-30762D01*
X9504Y-30782D01*
X9502Y-30801D01*
X9524Y-30903D01*
X9541Y-31005D01*
X9550Y-31022D01*
X9554Y-31042D01*
X9607Y-31131D01*
X9656Y-31222D01*
X9670Y-31236D01*
X9680Y-31253D01*
X9759Y-31320D01*
X9834Y-31391D01*
X9852Y-31400D01*
X9867Y-31413D01*
X9963Y-31452D01*
X10057Y-31495D01*
X10077Y-31497D01*
X10095Y-31505D01*
X10262Y-31523D01*
X18541Y-31523D01*
X18541Y-34788D01*
X18552Y-34858D01*
X18554Y-34930D01*
X18572Y-34979D01*
X18580Y-35030D01*
X18614Y-35094D01*
X18639Y-35161D01*
X18671Y-35202D01*
X18696Y-35248D01*
X18747Y-35297D01*
X18792Y-35353D01*
X18836Y-35381D01*
X18874Y-35417D01*
X18939Y-35447D01*
X18999Y-35486D01*
X19050Y-35499D01*
X19097Y-35521D01*
X19168Y-35529D01*
X19238Y-35546D01*
X19290Y-35542D01*
X19341Y-35548D01*
X19412Y-35533D01*
X19483Y-35527D01*
X19531Y-35507D01*
X19582Y-35496D01*
X19643Y-35459D01*
X19709Y-35431D01*
X19765Y-35386D01*
X19793Y-35370D01*
X19808Y-35352D01*
X19840Y-35326D01*
X27208Y-27958D01*
X27261Y-27884D01*
X27321Y-27815D01*
X27333Y-27784D01*
X27352Y-27758D01*
X27379Y-27671D01*
X27413Y-27586D01*
X27417Y-27545D01*
X27424Y-27523D01*
X27423Y-27491D01*
X27431Y-27420D01*
X27431Y-23278D01*
X29055Y-19357D01*
X32057Y-16355D01*
X35978Y-14731D01*
X40222Y-14731D01*
X43507Y-16092D01*
X43542Y-16100D01*
X43575Y-16116D01*
X43662Y-16128D01*
X43746Y-16148D01*
X43783Y-16145D01*
X43819Y-16149D01*
X43904Y-16133D01*
X43991Y-16125D01*
X44025Y-16110D01*
X44061Y-16103D01*
X44136Y-16060D01*
X44216Y-16025D01*
X44243Y-16000D01*
X44275Y-15982D01*
X44333Y-15917D01*
X44397Y-15858D01*
X44415Y-15826D01*
X44439Y-15799D01*
X44514Y-15649D01*
X46192Y-11038D01*
X46192Y-11034D01*
X46195Y-11030D01*
X46202Y-11000D01*
X46209Y-10983D01*
X46213Y-10950D01*
X46232Y-10866D01*
X47492Y-88D01*
X47492Y-84D01*
X47493Y-79D01*
X47492Y88D01*
X46232Y10866D01*
X46231Y10871D01*
X46231Y10875D01*
X46192Y11038D01*
X44514Y15649D01*
X44496Y15681D01*
X44485Y15716D01*
X44436Y15787D01*
X44393Y15863D01*
X44366Y15888D01*
X44345Y15918D01*
X44275Y15970D01*
X44211Y16028D01*
X44177Y16043D01*
X44148Y16065D01*
X44065Y16092D01*
X43985Y16126D01*
X43949Y16130D01*
X43914Y16141D01*
X43827Y16140D01*
X43740Y16148D01*
X43705Y16139D01*
X43668Y16139D01*
X43507Y16092D01*
X40222Y14731D01*
X35978Y14731D01*
X32057Y16355D01*
X29055Y19357D01*
X27431Y23278D01*
X27431Y27522D01*
X29055Y31443D01*
X31593Y33981D01*
X31612Y34006D01*
X31635Y34027D01*
X31683Y34106D01*
X31737Y34181D01*
X31746Y34211D01*
X31762Y34237D01*
X31782Y34328D01*
X31809Y34416D01*
X31809Y34447D01*
X31815Y34477D01*
X31805Y34570D01*
X31803Y34662D01*
X31792Y34691D01*
X31789Y34722D01*
X31750Y34806D01*
X31719Y34893D01*
X31699Y34917D01*
X31686Y34945D01*
X31578Y35073D01*
X28431Y38042D01*
X28427Y38044D01*
X28425Y38048D01*
X28289Y38147D01*
X18892Y43573D01*
X18888Y43575D01*
X18884Y43578D01*
X18730Y43643D01*
X8334Y46755D01*
X8329Y46756D01*
X8325Y46758D01*
X8160Y46786D01*
X-2673Y47417D01*
X-2678Y47416D01*
X-2682Y47417D01*
X-2850Y47407D01*
X-13536Y45522D01*
X-13541Y45521D01*
X-13545Y45521D01*
X-13706Y45472D01*
X-23669Y41174D01*
X-23673Y41171D01*
X-23678Y41170D01*
X-23823Y41085D01*
X-31643Y35263D01*
X-31695Y35209D01*
X-31754Y35162D01*
X-31780Y35121D01*
X-31814Y35086D01*
X-31846Y35019D01*
X-31887Y34955D01*
X-31899Y34908D01*
X-31919Y34864D01*
X-31928Y34790D01*
X-31947Y34717D01*
X-31943Y34668D01*
X-31949Y34620D01*
X-31933Y34546D01*
X-31928Y34472D01*
X-31909Y34427D01*
X-31899Y34379D01*
X-31861Y34314D01*
X-31831Y34245D01*
X-31790Y34194D01*
X-31774Y34167D01*
X-31755Y34150D01*
X-31727Y34114D01*
X-31645Y34033D01*
X-31621Y34016D01*
X-31603Y33994D01*
X-31544Y33958D01*
X-31501Y33921D01*
X-31474Y33910D01*
X-31445Y33890D01*
X-31418Y33881D01*
X-31393Y33866D01*
X-31327Y33851D01*
X-31273Y33829D01*
X-31236Y33825D01*
X-31210Y33817D01*
X-31181Y33818D01*
X-31153Y33811D01*
X-31132Y33814D01*
X-31106Y33811D01*
X-19810Y33811D01*
X-19790Y33814D01*
X-19771Y33812D01*
X-19669Y33834D01*
X-19567Y33850D01*
X-19550Y33860D01*
X-19530Y33864D01*
X-19441Y33917D01*
X-19350Y33966D01*
X-19336Y33980D01*
X-19319Y33990D01*
X-19252Y34069D01*
X-19180Y34144D01*
X-19172Y34162D01*
X-19159Y34177D01*
X-19120Y34273D01*
X-19077Y34367D01*
X-19075Y34387D01*
X-19067Y34405D01*
X-19049Y34572D01*
X-19049Y38763D01*
X-17263Y40549D01*
X-1737Y40549D01*
X-179Y38991D01*
X-163Y38979D01*
X-150Y38963D01*
X-63Y38907D01*
X21Y38847D01*
X40Y38841D01*
X56Y38830D01*
X157Y38805D01*
X256Y38775D01*
X276Y38775D01*
X295Y38770D01*
X398Y38778D01*
X502Y38781D01*
X520Y38788D01*
X540Y38790D01*
X635Y38830D01*
X733Y38866D01*
X748Y38878D01*
X767Y38886D01*
X897Y38991D01*
X1440Y39533D01*
X2019Y39868D01*
X2666Y40041D01*
X7977Y40041D01*
X7977Y30762D01*
X7980Y30742D01*
X7978Y30723D01*
X8000Y30621D01*
X8017Y30519D01*
X8026Y30502D01*
X8030Y30482D01*
X8083Y30393D01*
X8132Y30302D01*
X8146Y30288D01*
X8156Y30271D01*
X8235Y30204D01*
X8310Y30133D01*
X8328Y30124D01*
X8343Y30111D01*
X8439Y30072D01*
X8533Y30029D01*
X8553Y30027D01*
X8571Y30019D01*
X8738Y30001D01*
X9501Y30001D01*
X9501Y29999D01*
X8738Y29999D01*
X8718Y29996D01*
X8699Y29998D01*
X8597Y29976D01*
X8495Y29959D01*
X8478Y29950D01*
X8458Y29946D01*
X8369Y29893D01*
X8278Y29844D01*
X8264Y29830D01*
X8247Y29820D01*
X8180Y29741D01*
X8109Y29666D01*
X8100Y29648D01*
X8087Y29633D01*
X8048Y29537D01*
X8005Y29443D01*
X8003Y29423D01*
X7995Y29405D01*
X7977Y29238D01*
X7977Y19959D01*
X2666Y19959D01*
X2019Y20132D01*
X1440Y20467D01*
X897Y21009D01*
X881Y21021D01*
X869Y21037D01*
X782Y21093D01*
X698Y21153D01*
X679Y21159D01*
X662Y21170D01*
X562Y21195D01*
X463Y21225D01*
X443Y21225D01*
X423Y21230D01*
X320Y21222D01*
X217Y21219D01*
X198Y21212D01*
X178Y21210D01*
X83Y21170D01*
X-14Y21134D01*
X-30Y21122D01*
X-48Y21114D01*
X-179Y21009D01*
X-1737Y19451D01*
X-17263Y19451D01*
X-19049Y21237D01*
X-19049Y25428D01*
X-19052Y25448D01*
X-19050Y25467D01*
X-19072Y25569D01*
X-19088Y25671D01*
X-19098Y25688D01*
X-19102Y25708D01*
X-19155Y25797D01*
X-19204Y25888D01*
X-19218Y25902D01*
X-19228Y25919D01*
X-19307Y25986D01*
X-19382Y26058D01*
X-19400Y26066D01*
X-19415Y26079D01*
X-19511Y26118D01*
X-19605Y26161D01*
X-19625Y26163D01*
X-19643Y26171D01*
X-19810Y26189D01*
X-26670Y26189D01*
X-26690Y26186D01*
X-26709Y26188D01*
X-26811Y26166D01*
X-26913Y26150D01*
X-26930Y26140D01*
X-26950Y26136D01*
X-27039Y26083D01*
X-27130Y26034D01*
X-27144Y26020D01*
X-27161Y26010D01*
X-27228Y25931D01*
X-27300Y25856D01*
X-27308Y25838D01*
X-27321Y25823D01*
X-27360Y25727D01*
X-27403Y25633D01*
X-27405Y25613D01*
X-27413Y25595D01*
X-27431Y25428D01*
X-27431Y23278D01*
X-29055Y19357D01*
X-32057Y16355D01*
X-35978Y14731D01*
X-40222Y14731D01*
X-43744Y16190D01*
X-43823Y16209D01*
X-43899Y16236D01*
X-43942Y16236D01*
X-43984Y16246D01*
X-44064Y16239D01*
X-44144Y16240D01*
X-44186Y16227D01*
X-44229Y16223D01*
X-44302Y16190D01*
X-44379Y16166D01*
X-44414Y16141D01*
X-44453Y16123D01*
X-44513Y16069D01*
X-44578Y16021D01*
X-44603Y15986D01*
X-44634Y15957D01*
X-44673Y15886D01*
X-44720Y15820D01*
X-44739Y15767D01*
X-44753Y15741D01*
X-44758Y15713D01*
X-44776Y15662D01*
X-46409Y8771D01*
X-46412Y8735D01*
X-46423Y8699D01*
X-46421Y8612D01*
X-46427Y8526D01*
X-46417Y8490D01*
X-46417Y8453D01*
X-46387Y8372D01*
X-46365Y8288D01*
X-46345Y8257D01*
X-46332Y8222D01*
X-46278Y8155D01*
X-46230Y8082D01*
X-46201Y8059D01*
X-46178Y8030D01*
X-46106Y7983D01*
X-46037Y7930D01*
X-46002Y7917D01*
X-45971Y7897D01*
X-45887Y7876D01*
X-45806Y7847D01*
X-45769Y7846D01*
X-45733Y7837D01*
X-45647Y7844D01*
X-45560Y7842D01*
X-45524Y7853D01*
X-45488Y7856D01*
X-45408Y7890D01*
X-45325Y7916D01*
X-45295Y7938D01*
X-45261Y7953D01*
X-45130Y8057D01*
X-44143Y9045D01*
X-40222Y10669D01*
X-35978Y10669D01*
X-32057Y9045D01*
X-29055Y6043D01*
X-28325Y4281D01*
X-28263Y4181D01*
X-28204Y4081D01*
X-28199Y4077D01*
X-28196Y4072D01*
X-28105Y3997D01*
X-28017Y3921D01*
X-28011Y3919D01*
X-28006Y3915D01*
X-27898Y3873D01*
X-27789Y3829D01*
X-27781Y3828D01*
X-27777Y3827D01*
X-27758Y3826D01*
X-27622Y3811D01*
X-19810Y3811D01*
X-19790Y3814D01*
X-19771Y3812D01*
X-19669Y3834D01*
X-19567Y3850D01*
X-19550Y3860D01*
X-19530Y3864D01*
X-19441Y3917D01*
X-19350Y3966D01*
X-19336Y3980D01*
X-19319Y3990D01*
X-19252Y4069D01*
X-19180Y4144D01*
X-19172Y4162D01*
X-19159Y4177D01*
X-19120Y4273D01*
X-19077Y4367D01*
X-19075Y4387D01*
X-19067Y4405D01*
X-19049Y4572D01*
X-19049Y8763D01*
X-17263Y10549D01*
X-1737Y10549D01*
X-179Y8991D01*
X-163Y8979D01*
X-150Y8963D01*
X-63Y8907D01*
X21Y8847D01*
X40Y8841D01*
X56Y8830D01*
X157Y8805D01*
X256Y8775D01*
X276Y8775D01*
X295Y8770D01*
X398Y8778D01*
X502Y8781D01*
X520Y8788D01*
X540Y8790D01*
X635Y8830D01*
X733Y8866D01*
X748Y8878D01*
X767Y8886D01*
X897Y8991D01*
X1440Y9533D01*
X2019Y9868D01*
X2666Y10041D01*
X7977Y10041D01*
X7977Y762D01*
X7980Y742D01*
X7978Y723D01*
X8000Y621D01*
X8017Y519D01*
X8026Y502D01*
X8030Y482D01*
X8083Y393D01*
X8132Y302D01*
X8146Y288D01*
X8156Y271D01*
X8235Y204D01*
X8310Y133D01*
X8328Y124D01*
X8343Y111D01*
X8439Y72D01*
X8533Y29D01*
X8553Y27D01*
X8571Y19D01*
X8738Y1D01*
X9501Y1D01*
X9501Y-1D01*
X8738Y-1D01*
X8718Y-4D01*
X8699Y-2D01*
X8597Y-24D01*
X8495Y-41D01*
X8478Y-50D01*
X8458Y-54D01*
X8369Y-107D01*
X8278Y-156D01*
X8264Y-170D01*
X8247Y-180D01*
X8180Y-259D01*
X8109Y-334D01*
X8100Y-352D01*
X8087Y-367D01*
X8048Y-463D01*
X8005Y-557D01*
X8003Y-577D01*
X7995Y-595D01*
X7977Y-762D01*
X7977Y-10041D01*
X2666Y-10041D01*
X2019Y-9868D01*
X1440Y-9533D01*
X897Y-8991D01*
X881Y-8979D01*
X869Y-8963D01*
X782Y-8907D01*
X698Y-8847D01*
X679Y-8841D01*
X662Y-8830D01*
X562Y-8805D01*
X463Y-8775D01*
X443Y-8775D01*
X423Y-8770D01*
X320Y-8778D01*
X217Y-8781D01*
X198Y-8788D01*
X178Y-8790D01*
X83Y-8830D01*
X-14Y-8866D01*
X-30Y-8878D01*
X-48Y-8886D01*
X-179Y-8991D01*
X-1737Y-10549D01*
X-17263Y-10549D01*
X-19049Y-8763D01*
X-19049Y-4572D01*
X-19052Y-4552D01*
X-19050Y-4533D01*
X-19072Y-4431D01*
X-19088Y-4329D01*
X-19098Y-4312D01*
X-19102Y-4292D01*
X-19155Y-4203D01*
X-19204Y-4112D01*
X-19218Y-4098D01*
X-19228Y-4081D01*
X-19307Y-4014D01*
X-19382Y-3942D01*
X-19400Y-3934D01*
X-19415Y-3921D01*
X-19511Y-3882D01*
X-19605Y-3839D01*
X-19625Y-3837D01*
X-19643Y-3829D01*
X-19810Y-3811D01*
X-27622Y-3811D01*
X-27737Y-3830D01*
X-27853Y-3847D01*
X-27859Y-3849D01*
X-27865Y-3850D01*
X-27967Y-3905D01*
X-28072Y-3958D01*
X-28077Y-3963D01*
X-28082Y-3966D01*
X-28162Y-4050D01*
X-28244Y-4134D01*
X-28248Y-4140D01*
X-28252Y-4144D01*
X-28259Y-4161D01*
X-28325Y-4281D01*
X-29055Y-6043D01*
X-32057Y-9045D01*
X-35978Y-10669D01*
X-40222Y-10669D01*
X-44143Y-9045D01*
X-45130Y-8057D01*
X-45160Y-8036D01*
X-45185Y-8008D01*
X-45260Y-7964D01*
X-45330Y-7914D01*
X-45365Y-7903D01*
X-45397Y-7884D01*
X-45482Y-7867D01*
X-45565Y-7842D01*
X-45602Y-7843D01*
X-45638Y-7835D01*
X-45724Y-7846D01*
X-45811Y-7848D01*
X-45846Y-7861D01*
X-45882Y-7865D01*
X-45961Y-7903D01*
X-46042Y-7932D01*
X-46071Y-7955D01*
X-46104Y-7971D01*
X-46166Y-8032D01*
X-46234Y-8086D01*
X-46254Y-8117D01*
X-46281Y-8143D01*
X-46320Y-8220D01*
X-46367Y-8293D01*
X-46376Y-8329D01*
X-46393Y-8362D01*
X-46406Y-8447D01*
X-46427Y-8531D01*
X-46424Y-8568D01*
X-46430Y-8605D01*
X-46409Y-8771D01*
X-44658Y-16160D01*
X-44656Y-16164D01*
X-44656Y-16169D01*
X-44598Y-16326D01*
X-44546Y-16430D01*
X-44498Y-16496D01*
X-44457Y-16567D01*
X-44426Y-16595D01*
X-44401Y-16629D01*
X-44334Y-16677D01*
X-44273Y-16731D01*
X-44235Y-16748D01*
X-44201Y-16772D01*
X-44122Y-16796D01*
X-44047Y-16828D01*
X-44006Y-16831D01*
X-43965Y-16843D01*
X-43883Y-16841D01*
X-43802Y-16847D01*
X-43761Y-16837D01*
X-43720Y-16836D01*
X-43643Y-16807D01*
X-43563Y-16787D01*
X-43516Y-16760D01*
X-43489Y-16750D01*
X-43466Y-16732D01*
X-43445Y-16720D01*
X-42000Y-15984D01*
X-40479Y-15489D01*
X-39623Y-15354D01*
X-39623Y-24638D01*
X-39620Y-24658D01*
X-39622Y-24677D01*
X-39600Y-24779D01*
X-39583Y-24881D01*
X-39574Y-24898D01*
X-39570Y-24918D01*
X-39517Y-25007D01*
X-39468Y-25098D01*
X-39454Y-25112D01*
X-39444Y-25129D01*
X-39365Y-25196D01*
X-39290Y-25267D01*
X-39272Y-25276D01*
X-39257Y-25289D01*
X-39161Y-25327D01*
X-39067Y-25371D01*
X-39047Y-25373D01*
X-39029Y-25381D01*
X-38862Y-25399D01*
X-38099Y-25399D01*
X-38099Y-26162D01*
X-38096Y-26182D01*
X-38098Y-26201D01*
X-38076Y-26303D01*
X-38059Y-26405D01*
X-38050Y-26422D01*
X-38046Y-26442D01*
X-37993Y-26531D01*
X-37944Y-26622D01*
X-37930Y-26636D01*
X-37920Y-26653D01*
X-37841Y-26720D01*
X-37766Y-26791D01*
X-37748Y-26800D01*
X-37733Y-26813D01*
X-37637Y-26852D01*
X-37543Y-26895D01*
X-37523Y-26897D01*
X-37505Y-26905D01*
X-37338Y-26923D01*
X-28054Y-26923D01*
X-28189Y-27779D01*
X-28684Y-29300D01*
X-29410Y-30725D01*
X-30350Y-32019D01*
X-31481Y-33150D01*
X-32162Y-33645D01*
X-32170Y-33653D01*
X-32180Y-33659D01*
X-32256Y-33740D01*
X-32335Y-33820D01*
X-32340Y-33830D01*
X-32348Y-33839D01*
X-32394Y-33940D01*
X-32443Y-34041D01*
X-32445Y-34052D01*
X-32449Y-34063D01*
X-32461Y-34174D01*
X-32475Y-34285D01*
X-32473Y-34296D01*
X-32474Y-34307D01*
X-32450Y-34416D01*
X-32428Y-34526D01*
X-32422Y-34536D01*
X-32420Y-34547D01*
X-32362Y-34642D01*
X-32306Y-34740D01*
X-32298Y-34747D01*
X-32292Y-34757D01*
X-32169Y-34872D01*
X-23823Y-41085D01*
X-23819Y-41087D01*
X-23815Y-41091D01*
X-23670Y-41174D01*
X-13706Y-45472D01*
X-13701Y-45473D01*
X-13697Y-45475D01*
X-13536Y-45522D01*
X-12382Y-45726D01*
X-12368Y-45726D01*
X-12354Y-45730D01*
X-12245Y-45727D01*
G37*
%LPC*%
G36*
X11023Y31523D02*
X11023Y31523D01*
X11023Y40041D01*
X16334Y40041D01*
X16981Y39868D01*
X17560Y39533D01*
X18033Y39060D01*
X18368Y38481D01*
X18541Y37834D01*
X18541Y31523D01*
X11023Y31523D01*
G37*
%LPD*%
%LPC*%
G36*
X11023Y1523D02*
X11023Y1523D01*
X11023Y10041D01*
X16334Y10041D01*
X16981Y9868D01*
X17560Y9533D01*
X18033Y9060D01*
X18368Y8481D01*
X18541Y7834D01*
X18541Y1523D01*
X11023Y1523D01*
G37*
%LPD*%
%LPC*%
G36*
X11023Y-10041D02*
X11023Y-10041D01*
X11023Y-1523D01*
X18541Y-1523D01*
X18541Y-7834D01*
X18368Y-8481D01*
X18033Y-9060D01*
X17560Y-9533D01*
X16981Y-9868D01*
X16334Y-10041D01*
X11023Y-10041D01*
G37*
%LPD*%
%LPC*%
G36*
X11023Y19959D02*
X11023Y19959D01*
X11023Y28477D01*
X18541Y28477D01*
X18541Y22166D01*
X18368Y21519D01*
X18033Y20940D01*
X17560Y20467D01*
X16981Y20132D01*
X16334Y19959D01*
X11023Y19959D01*
G37*
%LPD*%
%LPC*%
G36*
X11023Y-28477D02*
X11023Y-28477D01*
X11023Y-19959D01*
X16334Y-19959D01*
X16981Y-20132D01*
X17560Y-20467D01*
X18033Y-20940D01*
X18368Y-21519D01*
X18541Y-22166D01*
X18541Y-28477D01*
X11023Y-28477D01*
G37*
%LPD*%
%LPC*%
G36*
X-36577Y-23877D02*
X-36577Y-23877D01*
X-36577Y-15354D01*
X-35721Y-15489D01*
X-34200Y-15984D01*
X-32775Y-16710D01*
X-31481Y-17650D01*
X-30350Y-18781D01*
X-29410Y-20075D01*
X-28684Y-21500D01*
X-28189Y-23021D01*
X-28054Y-23877D01*
X-36577Y-23877D01*
G37*
%LPD*%
D10*
X9500Y-30000D03*
X-9500Y-30000D03*
D11*
X38100Y-25400D03*
D10*
X-9500Y0D03*
X9500Y0D03*
X-9500Y30000D03*
X9500Y30000D03*
D11*
X-38100Y25400D03*
X-38100Y0D03*
X38100Y25400D03*
X-38100Y-25400D03*
D12*
X-9589Y-40094D02*
X-7184Y-42499D01*
X-9589Y-30089D02*
X-9500Y-30000D01*
X-9589Y-30089D02*
X-9589Y-40094D01*
X-7184Y-42499D02*
X19134Y-42499D01*
X36233Y-25400D02*
X38100Y-25400D01*
X36233Y-25400D02*
X19134Y-42499D01*
D13*
X-9500Y0D02*
X-38100Y0D01*
X-29212Y30000D02*
X-9500Y30000D01*
X-29212Y30000D02*
X-33812Y25400D01*
X-38100Y25400D01*
M02*
