G04 EAGLE Gerber RS-274X export*
G75*
%MOMM*%
%FSLAX34Y34*%
%LPD*%
%IN*%
%IPPOS*%
%AMOC8*
5,1,8,0,0,1.08239X$1,22.5*%
G01*
%ADD10C,0.254000*%


D10*
X58420Y-1043D02*
X58420Y1043D01*
X58346Y3127D01*
X58197Y5208D01*
X57974Y7282D01*
X57677Y9346D01*
X57307Y11399D01*
X56863Y13437D01*
X56347Y15458D01*
X55760Y17459D01*
X55101Y19439D01*
X54372Y21393D01*
X53574Y23320D01*
X52707Y25217D01*
X51774Y27082D01*
X50774Y28913D01*
X49710Y30707D01*
X48582Y32462D01*
X47393Y34175D01*
X46143Y35845D01*
X44834Y37469D01*
X43468Y39045D01*
X42047Y40572D01*
X40572Y42047D01*
X39045Y43468D01*
X37469Y44834D01*
X35845Y46143D01*
X34175Y47393D01*
X32462Y48582D01*
X30707Y49710D01*
X28913Y50774D01*
X27082Y51774D01*
X25217Y52707D01*
X23320Y53574D01*
X21393Y54372D01*
X19439Y55101D01*
X17459Y55760D01*
X15458Y56347D01*
X13437Y56863D01*
X11399Y57307D01*
X9346Y57677D01*
X7282Y57974D01*
X5208Y58197D01*
X3127Y58346D01*
X1043Y58420D01*
X-1043Y58420D01*
X-3127Y58346D01*
X-5208Y58197D01*
X-7282Y57974D01*
X-9346Y57677D01*
X-11399Y57307D01*
X-13437Y56863D01*
X-15458Y56347D01*
X-17459Y55760D01*
X-19439Y55101D01*
X-21393Y54372D01*
X-23320Y53574D01*
X-25217Y52707D01*
X-27082Y51774D01*
X-28913Y50774D01*
X-30707Y49710D01*
X-32462Y48582D01*
X-34175Y47393D01*
X-35845Y46143D01*
X-37469Y44834D01*
X-39045Y43468D01*
X-40572Y42047D01*
X-42047Y40572D01*
X-43468Y39045D01*
X-44834Y37469D01*
X-46143Y35845D01*
X-47393Y34175D01*
X-48582Y32462D01*
X-49710Y30707D01*
X-50774Y28913D01*
X-51774Y27082D01*
X-52707Y25217D01*
X-53574Y23320D01*
X-54372Y21393D01*
X-55101Y19439D01*
X-55760Y17459D01*
X-56347Y15458D01*
X-56863Y13437D01*
X-57307Y11399D01*
X-57677Y9346D01*
X-57974Y7282D01*
X-58197Y5208D01*
X-58346Y3127D01*
X-58420Y1043D01*
X-58420Y-1043D01*
X-58346Y-3127D01*
X-58197Y-5208D01*
X-57974Y-7282D01*
X-57677Y-9346D01*
X-57307Y-11399D01*
X-56863Y-13437D01*
X-56347Y-15458D01*
X-55760Y-17459D01*
X-55101Y-19439D01*
X-54372Y-21393D01*
X-53574Y-23320D01*
X-52707Y-25217D01*
X-51774Y-27082D01*
X-50774Y-28913D01*
X-49710Y-30707D01*
X-48582Y-32462D01*
X-47393Y-34175D01*
X-46143Y-35845D01*
X-44834Y-37469D01*
X-43468Y-39045D01*
X-42047Y-40572D01*
X-40572Y-42047D01*
X-39045Y-43468D01*
X-37469Y-44834D01*
X-35845Y-46143D01*
X-34175Y-47393D01*
X-32462Y-48582D01*
X-30707Y-49710D01*
X-28913Y-50774D01*
X-27082Y-51774D01*
X-25217Y-52707D01*
X-23320Y-53574D01*
X-21393Y-54372D01*
X-19439Y-55101D01*
X-17459Y-55760D01*
X-15458Y-56347D01*
X-13437Y-56863D01*
X-11399Y-57307D01*
X-9346Y-57677D01*
X-7282Y-57974D01*
X-5208Y-58197D01*
X-3127Y-58346D01*
X-1043Y-58420D01*
X1043Y-58420D01*
X3127Y-58346D01*
X5208Y-58197D01*
X7282Y-57974D01*
X9346Y-57677D01*
X11399Y-57307D01*
X13437Y-56863D01*
X15458Y-56347D01*
X17459Y-55760D01*
X19439Y-55101D01*
X21393Y-54372D01*
X23320Y-53574D01*
X25217Y-52707D01*
X27082Y-51774D01*
X28913Y-50774D01*
X30707Y-49710D01*
X32462Y-48582D01*
X34175Y-47393D01*
X35845Y-46143D01*
X37469Y-44834D01*
X39045Y-43468D01*
X40572Y-42047D01*
X42047Y-40572D01*
X43468Y-39045D01*
X44834Y-37469D01*
X46143Y-35845D01*
X47393Y-34175D01*
X48582Y-32462D01*
X49710Y-30707D01*
X50774Y-28913D01*
X51774Y-27082D01*
X52707Y-25217D01*
X53574Y-23320D01*
X54372Y-21393D01*
X55101Y-19439D01*
X55760Y-17459D01*
X56347Y-15458D01*
X56863Y-13437D01*
X57307Y-11399D01*
X57677Y-9346D01*
X57974Y-7282D01*
X58197Y-5208D01*
X58346Y-3127D01*
X58420Y-1043D01*
M02*
