G04 EAGLE Gerber RS-274X export*
G75*
%MOMM*%
%FSLAX34Y34*%
%LPD*%
%INSilkscreen Top*%
%IPPOS*%
%AMOC8*
5,1,8,0,0,1.08239X$1,22.5*%
G01*
%ADD10C,0.050800*%
%ADD11C,0.127000*%
%ADD12C,0.030000*%


D10*
X-25323Y-45193D02*
X-25323Y-42307D01*
X-25321Y-42224D01*
X-25315Y-42141D01*
X-25306Y-42058D01*
X-25292Y-41976D01*
X-25275Y-41894D01*
X-25254Y-41814D01*
X-25230Y-41734D01*
X-25201Y-41656D01*
X-25169Y-41579D01*
X-25134Y-41503D01*
X-25095Y-41430D01*
X-25053Y-41358D01*
X-25007Y-41288D01*
X-24959Y-41220D01*
X-24907Y-41155D01*
X-24852Y-41092D01*
X-24795Y-41032D01*
X-24735Y-40975D01*
X-24672Y-40920D01*
X-24607Y-40868D01*
X-24539Y-40820D01*
X-24469Y-40774D01*
X-24397Y-40732D01*
X-24324Y-40693D01*
X-24248Y-40658D01*
X-24171Y-40626D01*
X-24093Y-40597D01*
X-24013Y-40573D01*
X-23933Y-40552D01*
X-23851Y-40535D01*
X-23769Y-40521D01*
X-23686Y-40512D01*
X-23603Y-40506D01*
X-23520Y-40504D01*
X-23437Y-40506D01*
X-23354Y-40512D01*
X-23271Y-40521D01*
X-23189Y-40535D01*
X-23107Y-40552D01*
X-23027Y-40573D01*
X-22947Y-40597D01*
X-22869Y-40626D01*
X-22792Y-40658D01*
X-22716Y-40693D01*
X-22643Y-40732D01*
X-22571Y-40774D01*
X-22501Y-40820D01*
X-22433Y-40868D01*
X-22368Y-40920D01*
X-22305Y-40975D01*
X-22245Y-41032D01*
X-22188Y-41092D01*
X-22133Y-41155D01*
X-22081Y-41220D01*
X-22033Y-41288D01*
X-21987Y-41358D01*
X-21945Y-41430D01*
X-21906Y-41503D01*
X-21871Y-41579D01*
X-21839Y-41656D01*
X-21810Y-41734D01*
X-21786Y-41814D01*
X-21765Y-41894D01*
X-21748Y-41976D01*
X-21734Y-42058D01*
X-21725Y-42141D01*
X-21719Y-42224D01*
X-21717Y-42307D01*
X-21717Y-45193D01*
X-21719Y-45276D01*
X-21725Y-45359D01*
X-21734Y-45442D01*
X-21748Y-45524D01*
X-21765Y-45606D01*
X-21786Y-45686D01*
X-21810Y-45766D01*
X-21839Y-45844D01*
X-21871Y-45921D01*
X-21906Y-45997D01*
X-21945Y-46070D01*
X-21987Y-46142D01*
X-22033Y-46212D01*
X-22081Y-46280D01*
X-22133Y-46345D01*
X-22188Y-46408D01*
X-22245Y-46468D01*
X-22305Y-46525D01*
X-22368Y-46580D01*
X-22433Y-46632D01*
X-22501Y-46680D01*
X-22571Y-46726D01*
X-22643Y-46768D01*
X-22716Y-46807D01*
X-22792Y-46842D01*
X-22869Y-46874D01*
X-22947Y-46903D01*
X-23027Y-46927D01*
X-23107Y-46948D01*
X-23189Y-46965D01*
X-23271Y-46979D01*
X-23354Y-46988D01*
X-23437Y-46994D01*
X-23520Y-46996D01*
X-23603Y-46994D01*
X-23686Y-46988D01*
X-23769Y-46979D01*
X-23851Y-46965D01*
X-23933Y-46948D01*
X-24013Y-46927D01*
X-24093Y-46903D01*
X-24171Y-46874D01*
X-24248Y-46842D01*
X-24324Y-46807D01*
X-24397Y-46768D01*
X-24469Y-46726D01*
X-24539Y-46680D01*
X-24607Y-46632D01*
X-24672Y-46580D01*
X-24735Y-46525D01*
X-24795Y-46468D01*
X-24852Y-46408D01*
X-24907Y-46345D01*
X-24959Y-46280D01*
X-25007Y-46212D01*
X-25053Y-46142D01*
X-25095Y-46070D01*
X-25134Y-45997D01*
X-25169Y-45921D01*
X-25201Y-45844D01*
X-25230Y-45766D01*
X-25254Y-45686D01*
X-25275Y-45606D01*
X-25292Y-45524D01*
X-25306Y-45442D01*
X-25315Y-45359D01*
X-25321Y-45276D01*
X-25323Y-45193D01*
X-18724Y-46996D02*
X-18724Y-40504D01*
X-16921Y-40504D01*
X-16838Y-40506D01*
X-16755Y-40512D01*
X-16672Y-40521D01*
X-16590Y-40535D01*
X-16508Y-40552D01*
X-16428Y-40573D01*
X-16348Y-40597D01*
X-16270Y-40626D01*
X-16193Y-40658D01*
X-16117Y-40693D01*
X-16044Y-40732D01*
X-15972Y-40774D01*
X-15902Y-40820D01*
X-15834Y-40868D01*
X-15769Y-40920D01*
X-15706Y-40975D01*
X-15646Y-41032D01*
X-15589Y-41092D01*
X-15534Y-41155D01*
X-15482Y-41220D01*
X-15434Y-41288D01*
X-15388Y-41358D01*
X-15346Y-41430D01*
X-15307Y-41503D01*
X-15272Y-41579D01*
X-15240Y-41656D01*
X-15211Y-41734D01*
X-15187Y-41814D01*
X-15166Y-41894D01*
X-15149Y-41976D01*
X-15135Y-42058D01*
X-15126Y-42141D01*
X-15120Y-42224D01*
X-15118Y-42307D01*
X-15120Y-42390D01*
X-15126Y-42473D01*
X-15135Y-42556D01*
X-15149Y-42638D01*
X-15166Y-42720D01*
X-15187Y-42800D01*
X-15211Y-42880D01*
X-15240Y-42958D01*
X-15272Y-43035D01*
X-15307Y-43111D01*
X-15346Y-43184D01*
X-15388Y-43256D01*
X-15434Y-43326D01*
X-15482Y-43394D01*
X-15534Y-43459D01*
X-15589Y-43522D01*
X-15646Y-43582D01*
X-15706Y-43639D01*
X-15769Y-43694D01*
X-15834Y-43746D01*
X-15902Y-43794D01*
X-15972Y-43840D01*
X-16044Y-43882D01*
X-16117Y-43921D01*
X-16193Y-43956D01*
X-16270Y-43988D01*
X-16348Y-44017D01*
X-16428Y-44041D01*
X-16508Y-44062D01*
X-16590Y-44079D01*
X-16672Y-44093D01*
X-16755Y-44102D01*
X-16838Y-44108D01*
X-16921Y-44110D01*
X-16921Y-44111D02*
X-18724Y-44111D01*
X-12501Y-46996D02*
X-9616Y-46996D01*
X-12501Y-46996D02*
X-12501Y-40504D01*
X-9616Y-40504D01*
X-10337Y-43389D02*
X-12501Y-43389D01*
X-7113Y-42668D02*
X-7113Y-46996D01*
X-7113Y-42668D02*
X-5309Y-42668D01*
X-5246Y-42670D01*
X-5183Y-42675D01*
X-5121Y-42684D01*
X-5059Y-42697D01*
X-4999Y-42713D01*
X-4939Y-42733D01*
X-4880Y-42756D01*
X-4823Y-42783D01*
X-4768Y-42813D01*
X-4714Y-42846D01*
X-4663Y-42882D01*
X-4614Y-42921D01*
X-4566Y-42963D01*
X-4522Y-43007D01*
X-4480Y-43055D01*
X-4441Y-43104D01*
X-4405Y-43155D01*
X-4372Y-43209D01*
X-4342Y-43264D01*
X-4315Y-43321D01*
X-4292Y-43380D01*
X-4272Y-43440D01*
X-4256Y-43500D01*
X-4243Y-43562D01*
X-4234Y-43624D01*
X-4229Y-43687D01*
X-4227Y-43750D01*
X-4227Y-46996D01*
X571Y-46996D02*
X647Y-46994D01*
X722Y-46988D01*
X797Y-46978D01*
X871Y-46964D01*
X944Y-46947D01*
X1017Y-46925D01*
X1088Y-46900D01*
X1158Y-46871D01*
X1226Y-46839D01*
X1293Y-46803D01*
X1357Y-46763D01*
X1419Y-46720D01*
X1479Y-46674D01*
X1537Y-46625D01*
X1591Y-46573D01*
X1643Y-46519D01*
X1692Y-46461D01*
X1738Y-46401D01*
X1781Y-46339D01*
X1821Y-46274D01*
X1857Y-46208D01*
X1889Y-46140D01*
X1918Y-46070D01*
X1943Y-45999D01*
X1965Y-45926D01*
X1982Y-45853D01*
X1996Y-45779D01*
X2006Y-45704D01*
X2012Y-45629D01*
X2014Y-45553D01*
X571Y-46996D02*
X462Y-46994D01*
X352Y-46988D01*
X243Y-46978D01*
X135Y-46965D01*
X27Y-46947D01*
X-80Y-46926D01*
X-187Y-46900D01*
X-292Y-46871D01*
X-396Y-46838D01*
X-500Y-46802D01*
X-601Y-46762D01*
X-701Y-46718D01*
X-800Y-46670D01*
X-897Y-46619D01*
X-992Y-46565D01*
X-1085Y-46507D01*
X-1175Y-46446D01*
X-1264Y-46382D01*
X-1350Y-46314D01*
X-1434Y-46244D01*
X-1515Y-46171D01*
X-1593Y-46094D01*
X-1413Y-41947D02*
X-1411Y-41871D01*
X-1405Y-41796D01*
X-1395Y-41721D01*
X-1381Y-41647D01*
X-1364Y-41574D01*
X-1342Y-41501D01*
X-1317Y-41430D01*
X-1288Y-41360D01*
X-1256Y-41292D01*
X-1220Y-41226D01*
X-1180Y-41161D01*
X-1137Y-41099D01*
X-1091Y-41039D01*
X-1042Y-40981D01*
X-990Y-40927D01*
X-936Y-40875D01*
X-878Y-40826D01*
X-818Y-40780D01*
X-756Y-40737D01*
X-692Y-40697D01*
X-625Y-40661D01*
X-557Y-40629D01*
X-487Y-40600D01*
X-416Y-40575D01*
X-343Y-40553D01*
X-270Y-40536D01*
X-196Y-40522D01*
X-121Y-40512D01*
X-46Y-40506D01*
X30Y-40504D01*
X132Y-40506D01*
X235Y-40512D01*
X337Y-40521D01*
X438Y-40535D01*
X539Y-40552D01*
X639Y-40573D01*
X738Y-40598D01*
X837Y-40627D01*
X934Y-40659D01*
X1030Y-40695D01*
X1124Y-40735D01*
X1217Y-40778D01*
X1308Y-40825D01*
X1397Y-40875D01*
X1485Y-40928D01*
X1570Y-40985D01*
X1653Y-41045D01*
X-692Y-43209D02*
X-756Y-43169D01*
X-819Y-43125D01*
X-879Y-43079D01*
X-936Y-43029D01*
X-991Y-42976D01*
X-1043Y-42920D01*
X-1092Y-42862D01*
X-1138Y-42802D01*
X-1181Y-42739D01*
X-1220Y-42674D01*
X-1256Y-42607D01*
X-1288Y-42538D01*
X-1317Y-42468D01*
X-1343Y-42396D01*
X-1364Y-42323D01*
X-1382Y-42249D01*
X-1395Y-42174D01*
X-1405Y-42099D01*
X-1411Y-42023D01*
X-1413Y-41947D01*
X1292Y-44291D02*
X1356Y-44331D01*
X1419Y-44375D01*
X1479Y-44422D01*
X1536Y-44471D01*
X1591Y-44524D01*
X1643Y-44580D01*
X1692Y-44638D01*
X1738Y-44698D01*
X1781Y-44761D01*
X1820Y-44826D01*
X1856Y-44893D01*
X1888Y-44962D01*
X1917Y-45032D01*
X1943Y-45104D01*
X1964Y-45177D01*
X1982Y-45251D01*
X1995Y-45326D01*
X2005Y-45401D01*
X2011Y-45477D01*
X2013Y-45553D01*
X1292Y-44291D02*
X-692Y-43209D01*
X7587Y-42668D02*
X9030Y-46996D01*
X10473Y-42668D01*
X14880Y-40504D02*
X14960Y-40506D01*
X15039Y-40512D01*
X15118Y-40522D01*
X15197Y-40535D01*
X15274Y-40553D01*
X15351Y-40574D01*
X15427Y-40599D01*
X15501Y-40628D01*
X15574Y-40660D01*
X15645Y-40696D01*
X15714Y-40735D01*
X15782Y-40778D01*
X15847Y-40823D01*
X15910Y-40872D01*
X15970Y-40924D01*
X16028Y-40979D01*
X16083Y-41037D01*
X16135Y-41097D01*
X16184Y-41160D01*
X16229Y-41225D01*
X16272Y-41293D01*
X16311Y-41362D01*
X16347Y-41433D01*
X16379Y-41506D01*
X16408Y-41580D01*
X16433Y-41656D01*
X16454Y-41733D01*
X16472Y-41810D01*
X16485Y-41889D01*
X16495Y-41968D01*
X16501Y-42047D01*
X16503Y-42127D01*
X14880Y-40504D02*
X14790Y-40506D01*
X14699Y-40512D01*
X14610Y-40522D01*
X14520Y-40535D01*
X14431Y-40553D01*
X14344Y-40574D01*
X14257Y-40599D01*
X14171Y-40628D01*
X14087Y-40661D01*
X14004Y-40697D01*
X13923Y-40737D01*
X13843Y-40780D01*
X13766Y-40827D01*
X13690Y-40877D01*
X13617Y-40930D01*
X13547Y-40986D01*
X13478Y-41045D01*
X13413Y-41108D01*
X13350Y-41173D01*
X13290Y-41240D01*
X13233Y-41310D01*
X13179Y-41383D01*
X13128Y-41458D01*
X13081Y-41535D01*
X13037Y-41614D01*
X12997Y-41695D01*
X12960Y-41777D01*
X12926Y-41861D01*
X12896Y-41947D01*
X15962Y-43389D02*
X16018Y-43334D01*
X16071Y-43276D01*
X16121Y-43216D01*
X16169Y-43154D01*
X16213Y-43089D01*
X16255Y-43023D01*
X16294Y-42955D01*
X16330Y-42885D01*
X16362Y-42814D01*
X16391Y-42741D01*
X16417Y-42667D01*
X16440Y-42592D01*
X16459Y-42516D01*
X16475Y-42439D01*
X16487Y-42362D01*
X16496Y-42284D01*
X16501Y-42205D01*
X16503Y-42127D01*
X15962Y-43389D02*
X12897Y-46996D01*
X16503Y-46996D01*
X18930Y-46996D02*
X18930Y-46635D01*
X19290Y-46635D01*
X19290Y-46996D01*
X18930Y-46996D01*
X21716Y-43750D02*
X21718Y-43607D01*
X21724Y-43465D01*
X21733Y-43322D01*
X21746Y-43180D01*
X21764Y-43038D01*
X21784Y-42897D01*
X21809Y-42757D01*
X21837Y-42617D01*
X21870Y-42478D01*
X21905Y-42339D01*
X21945Y-42202D01*
X21988Y-42066D01*
X22035Y-41931D01*
X22085Y-41798D01*
X22139Y-41665D01*
X22196Y-41535D01*
X22257Y-41406D01*
X22258Y-41405D02*
X22283Y-41338D01*
X22312Y-41272D01*
X22344Y-41208D01*
X22380Y-41145D01*
X22419Y-41085D01*
X22461Y-41027D01*
X22506Y-40971D01*
X22555Y-40917D01*
X22606Y-40867D01*
X22659Y-40819D01*
X22716Y-40774D01*
X22774Y-40732D01*
X22835Y-40693D01*
X22898Y-40658D01*
X22962Y-40626D01*
X23028Y-40598D01*
X23096Y-40573D01*
X23165Y-40552D01*
X23234Y-40535D01*
X23305Y-40521D01*
X23376Y-40512D01*
X23448Y-40506D01*
X23520Y-40504D01*
X23592Y-40506D01*
X23664Y-40512D01*
X23735Y-40521D01*
X23806Y-40535D01*
X23875Y-40552D01*
X23944Y-40573D01*
X24012Y-40598D01*
X24078Y-40626D01*
X24142Y-40658D01*
X24205Y-40693D01*
X24266Y-40732D01*
X24324Y-40774D01*
X24381Y-40819D01*
X24434Y-40867D01*
X24485Y-40917D01*
X24534Y-40971D01*
X24579Y-41027D01*
X24621Y-41085D01*
X24660Y-41145D01*
X24696Y-41208D01*
X24728Y-41272D01*
X24757Y-41338D01*
X24782Y-41405D01*
X24782Y-41406D02*
X24843Y-41535D01*
X24900Y-41665D01*
X24954Y-41798D01*
X25004Y-41931D01*
X25051Y-42066D01*
X25094Y-42202D01*
X25134Y-42339D01*
X25169Y-42478D01*
X25202Y-42617D01*
X25230Y-42757D01*
X25255Y-42897D01*
X25275Y-43038D01*
X25293Y-43180D01*
X25306Y-43322D01*
X25315Y-43465D01*
X25321Y-43607D01*
X25323Y-43750D01*
X21716Y-43750D02*
X21718Y-43893D01*
X21724Y-44035D01*
X21733Y-44178D01*
X21746Y-44320D01*
X21764Y-44462D01*
X21784Y-44603D01*
X21809Y-44743D01*
X21837Y-44883D01*
X21870Y-45022D01*
X21905Y-45161D01*
X21945Y-45298D01*
X21988Y-45434D01*
X22035Y-45569D01*
X22085Y-45702D01*
X22139Y-45835D01*
X22196Y-45965D01*
X22257Y-46094D01*
X22258Y-46095D02*
X22283Y-46162D01*
X22312Y-46228D01*
X22344Y-46292D01*
X22380Y-46355D01*
X22419Y-46415D01*
X22461Y-46473D01*
X22506Y-46529D01*
X22555Y-46583D01*
X22606Y-46633D01*
X22659Y-46681D01*
X22716Y-46726D01*
X22774Y-46768D01*
X22835Y-46807D01*
X22898Y-46842D01*
X22962Y-46874D01*
X23028Y-46902D01*
X23096Y-46927D01*
X23165Y-46948D01*
X23234Y-46965D01*
X23305Y-46979D01*
X23376Y-46988D01*
X23448Y-46994D01*
X23520Y-46996D01*
X24782Y-46094D02*
X24843Y-45965D01*
X24900Y-45835D01*
X24954Y-45702D01*
X25004Y-45569D01*
X25051Y-45434D01*
X25094Y-45298D01*
X25134Y-45161D01*
X25169Y-45022D01*
X25202Y-44883D01*
X25230Y-44743D01*
X25255Y-44603D01*
X25275Y-44462D01*
X25293Y-44320D01*
X25306Y-44178D01*
X25315Y-44035D01*
X25321Y-43893D01*
X25323Y-43750D01*
X24782Y-46095D02*
X24757Y-46162D01*
X24728Y-46228D01*
X24696Y-46292D01*
X24660Y-46355D01*
X24621Y-46415D01*
X24579Y-46473D01*
X24534Y-46529D01*
X24485Y-46583D01*
X24434Y-46633D01*
X24381Y-46681D01*
X24324Y-46726D01*
X24266Y-46768D01*
X24205Y-46807D01*
X24142Y-46842D01*
X24078Y-46874D01*
X24012Y-46902D01*
X23944Y-46927D01*
X23875Y-46948D01*
X23806Y-46965D01*
X23735Y-46979D01*
X23664Y-46988D01*
X23592Y-46994D01*
X23520Y-46996D01*
X22077Y-45553D02*
X24963Y-41947D01*
D11*
X15503Y35200D02*
X15505Y35282D01*
X15511Y35364D01*
X15521Y35445D01*
X15535Y35526D01*
X15552Y35606D01*
X15574Y35685D01*
X15599Y35763D01*
X15628Y35840D01*
X15661Y35915D01*
X15697Y35989D01*
X15737Y36060D01*
X15781Y36130D01*
X15827Y36197D01*
X15877Y36263D01*
X15930Y36325D01*
X15986Y36385D01*
X16044Y36443D01*
X16106Y36497D01*
X16170Y36548D01*
X16236Y36597D01*
X16305Y36642D01*
X16375Y36683D01*
X16448Y36721D01*
X16522Y36756D01*
X16598Y36787D01*
X16676Y36814D01*
X16754Y36837D01*
X16834Y36857D01*
X16914Y36873D01*
X16995Y36885D01*
X17077Y36893D01*
X17159Y36897D01*
X17241Y36897D01*
X17323Y36893D01*
X17405Y36885D01*
X17486Y36873D01*
X17566Y36857D01*
X17646Y36837D01*
X17724Y36814D01*
X17802Y36787D01*
X17878Y36756D01*
X17952Y36721D01*
X18025Y36683D01*
X18095Y36642D01*
X18164Y36597D01*
X18230Y36548D01*
X18294Y36497D01*
X18356Y36443D01*
X18414Y36385D01*
X18470Y36325D01*
X18523Y36263D01*
X18573Y36197D01*
X18619Y36130D01*
X18663Y36060D01*
X18703Y35989D01*
X18739Y35915D01*
X18772Y35840D01*
X18801Y35763D01*
X18826Y35685D01*
X18848Y35606D01*
X18865Y35526D01*
X18879Y35445D01*
X18889Y35364D01*
X18895Y35282D01*
X18897Y35200D01*
X18895Y35118D01*
X18889Y35036D01*
X18879Y34955D01*
X18865Y34874D01*
X18848Y34794D01*
X18826Y34715D01*
X18801Y34637D01*
X18772Y34560D01*
X18739Y34485D01*
X18703Y34411D01*
X18663Y34340D01*
X18619Y34270D01*
X18573Y34203D01*
X18523Y34137D01*
X18470Y34075D01*
X18414Y34015D01*
X18356Y33957D01*
X18294Y33903D01*
X18230Y33852D01*
X18164Y33803D01*
X18095Y33758D01*
X18025Y33717D01*
X17952Y33679D01*
X17878Y33644D01*
X17802Y33613D01*
X17724Y33586D01*
X17646Y33563D01*
X17566Y33543D01*
X17486Y33527D01*
X17405Y33515D01*
X17323Y33507D01*
X17241Y33503D01*
X17159Y33503D01*
X17077Y33507D01*
X16995Y33515D01*
X16914Y33527D01*
X16834Y33543D01*
X16754Y33563D01*
X16676Y33586D01*
X16598Y33613D01*
X16522Y33644D01*
X16448Y33679D01*
X16375Y33717D01*
X16305Y33758D01*
X16236Y33803D01*
X16170Y33852D01*
X16106Y33903D01*
X16044Y33957D01*
X15986Y34015D01*
X15930Y34075D01*
X15877Y34137D01*
X15827Y34203D01*
X15781Y34270D01*
X15737Y34340D01*
X15697Y34411D01*
X15661Y34485D01*
X15628Y34560D01*
X15599Y34637D01*
X15574Y34715D01*
X15552Y34794D01*
X15535Y34874D01*
X15521Y34955D01*
X15511Y35036D01*
X15505Y35118D01*
X15503Y35200D01*
D12*
X-32000Y31000D02*
X-32000Y-31000D01*
X32000Y-31000D02*
X32000Y31000D01*
X-32000Y31000D02*
X-32000Y26000D01*
X-32000Y31000D02*
X-27000Y31000D01*
X-32000Y-26000D02*
X-32000Y-31000D01*
X-27000Y-31000D01*
X27000Y-31000D02*
X32000Y-31000D01*
X32000Y-26000D01*
X32000Y31000D02*
X27000Y31000D01*
X32000Y31000D02*
X32000Y26000D01*
D10*
X-34189Y40504D02*
X-34189Y46996D01*
X-32025Y43389D01*
X-29861Y46996D01*
X-29861Y40504D01*
X-24944Y40504D02*
X-24868Y40506D01*
X-24793Y40512D01*
X-24718Y40522D01*
X-24644Y40536D01*
X-24571Y40553D01*
X-24498Y40575D01*
X-24427Y40600D01*
X-24357Y40629D01*
X-24289Y40661D01*
X-24222Y40697D01*
X-24158Y40737D01*
X-24096Y40780D01*
X-24036Y40826D01*
X-23978Y40875D01*
X-23924Y40927D01*
X-23872Y40981D01*
X-23823Y41039D01*
X-23777Y41099D01*
X-23734Y41161D01*
X-23694Y41226D01*
X-23658Y41292D01*
X-23626Y41360D01*
X-23597Y41430D01*
X-23572Y41501D01*
X-23550Y41574D01*
X-23533Y41647D01*
X-23519Y41721D01*
X-23509Y41796D01*
X-23503Y41871D01*
X-23501Y41947D01*
X-24944Y40504D02*
X-25053Y40506D01*
X-25163Y40512D01*
X-25272Y40522D01*
X-25380Y40535D01*
X-25488Y40553D01*
X-25595Y40574D01*
X-25702Y40600D01*
X-25807Y40629D01*
X-25911Y40662D01*
X-26015Y40698D01*
X-26116Y40738D01*
X-26216Y40782D01*
X-26315Y40830D01*
X-26412Y40881D01*
X-26507Y40935D01*
X-26600Y40993D01*
X-26690Y41054D01*
X-26779Y41118D01*
X-26865Y41186D01*
X-26949Y41256D01*
X-27030Y41329D01*
X-27108Y41406D01*
X-26928Y45553D02*
X-26926Y45629D01*
X-26920Y45704D01*
X-26910Y45779D01*
X-26896Y45853D01*
X-26879Y45926D01*
X-26857Y45999D01*
X-26832Y46070D01*
X-26803Y46140D01*
X-26771Y46208D01*
X-26735Y46275D01*
X-26695Y46339D01*
X-26652Y46401D01*
X-26606Y46461D01*
X-26557Y46519D01*
X-26505Y46573D01*
X-26451Y46625D01*
X-26393Y46674D01*
X-26333Y46720D01*
X-26271Y46763D01*
X-26207Y46803D01*
X-26140Y46839D01*
X-26072Y46871D01*
X-26002Y46900D01*
X-25931Y46925D01*
X-25858Y46947D01*
X-25785Y46964D01*
X-25711Y46978D01*
X-25636Y46988D01*
X-25561Y46994D01*
X-25485Y46996D01*
X-25383Y46994D01*
X-25280Y46988D01*
X-25178Y46979D01*
X-25077Y46965D01*
X-24976Y46948D01*
X-24876Y46927D01*
X-24777Y46902D01*
X-24678Y46873D01*
X-24581Y46841D01*
X-24485Y46805D01*
X-24391Y46765D01*
X-24298Y46722D01*
X-24207Y46675D01*
X-24118Y46625D01*
X-24030Y46572D01*
X-23945Y46515D01*
X-23862Y46455D01*
X-26207Y44291D02*
X-26271Y44331D01*
X-26334Y44375D01*
X-26394Y44421D01*
X-26451Y44471D01*
X-26506Y44524D01*
X-26558Y44580D01*
X-26607Y44638D01*
X-26653Y44698D01*
X-26696Y44761D01*
X-26735Y44826D01*
X-26771Y44893D01*
X-26803Y44962D01*
X-26832Y45032D01*
X-26858Y45104D01*
X-26879Y45177D01*
X-26897Y45251D01*
X-26910Y45326D01*
X-26920Y45401D01*
X-26926Y45477D01*
X-26928Y45553D01*
X-24223Y43209D02*
X-24159Y43169D01*
X-24096Y43125D01*
X-24036Y43079D01*
X-23979Y43029D01*
X-23924Y42976D01*
X-23872Y42920D01*
X-23823Y42862D01*
X-23777Y42802D01*
X-23734Y42739D01*
X-23695Y42674D01*
X-23659Y42607D01*
X-23627Y42538D01*
X-23598Y42468D01*
X-23573Y42396D01*
X-23551Y42323D01*
X-23533Y42249D01*
X-23520Y42174D01*
X-23510Y42099D01*
X-23504Y42023D01*
X-23502Y41947D01*
X-24223Y43209D02*
X-26207Y44291D01*
X-21018Y40504D02*
X-18854Y40504D01*
X-18778Y40506D01*
X-18703Y40512D01*
X-18628Y40522D01*
X-18554Y40536D01*
X-18481Y40553D01*
X-18408Y40575D01*
X-18337Y40600D01*
X-18267Y40629D01*
X-18199Y40661D01*
X-18132Y40697D01*
X-18068Y40737D01*
X-18006Y40780D01*
X-17946Y40826D01*
X-17888Y40875D01*
X-17834Y40927D01*
X-17782Y40981D01*
X-17733Y41039D01*
X-17687Y41099D01*
X-17644Y41161D01*
X-17604Y41226D01*
X-17568Y41292D01*
X-17536Y41360D01*
X-17507Y41430D01*
X-17482Y41501D01*
X-17460Y41574D01*
X-17443Y41647D01*
X-17429Y41721D01*
X-17419Y41796D01*
X-17413Y41871D01*
X-17411Y41947D01*
X-17412Y41947D02*
X-17412Y42668D01*
X-17411Y42668D02*
X-17413Y42741D01*
X-17418Y42814D01*
X-17428Y42887D01*
X-17441Y42958D01*
X-17457Y43030D01*
X-17477Y43100D01*
X-17501Y43169D01*
X-17528Y43237D01*
X-17558Y43303D01*
X-17592Y43368D01*
X-17629Y43431D01*
X-17670Y43492D01*
X-17713Y43551D01*
X-17759Y43608D01*
X-17808Y43662D01*
X-17860Y43714D01*
X-17914Y43763D01*
X-17971Y43809D01*
X-18030Y43852D01*
X-18091Y43893D01*
X-18154Y43930D01*
X-18219Y43964D01*
X-18285Y43994D01*
X-18353Y44021D01*
X-18422Y44045D01*
X-18492Y44065D01*
X-18564Y44081D01*
X-18636Y44094D01*
X-18708Y44104D01*
X-18781Y44109D01*
X-18854Y44111D01*
X-21018Y44111D01*
X-21018Y46996D01*
X-17412Y46996D01*
X-14718Y42307D02*
X-14716Y42390D01*
X-14710Y42473D01*
X-14701Y42556D01*
X-14687Y42638D01*
X-14670Y42720D01*
X-14649Y42800D01*
X-14625Y42880D01*
X-14596Y42958D01*
X-14564Y43035D01*
X-14529Y43111D01*
X-14490Y43184D01*
X-14448Y43256D01*
X-14402Y43326D01*
X-14354Y43394D01*
X-14302Y43459D01*
X-14247Y43522D01*
X-14190Y43582D01*
X-14130Y43639D01*
X-14067Y43694D01*
X-14002Y43746D01*
X-13934Y43794D01*
X-13864Y43840D01*
X-13792Y43882D01*
X-13719Y43921D01*
X-13643Y43956D01*
X-13566Y43988D01*
X-13488Y44017D01*
X-13408Y44041D01*
X-13328Y44062D01*
X-13246Y44079D01*
X-13164Y44093D01*
X-13081Y44102D01*
X-12998Y44108D01*
X-12915Y44110D01*
X-12832Y44108D01*
X-12749Y44102D01*
X-12666Y44093D01*
X-12584Y44079D01*
X-12502Y44062D01*
X-12422Y44041D01*
X-12342Y44017D01*
X-12264Y43988D01*
X-12187Y43956D01*
X-12111Y43921D01*
X-12038Y43882D01*
X-11966Y43840D01*
X-11896Y43794D01*
X-11828Y43746D01*
X-11763Y43694D01*
X-11700Y43639D01*
X-11640Y43582D01*
X-11583Y43522D01*
X-11528Y43459D01*
X-11476Y43394D01*
X-11428Y43326D01*
X-11382Y43256D01*
X-11340Y43184D01*
X-11301Y43111D01*
X-11266Y43035D01*
X-11234Y42958D01*
X-11205Y42880D01*
X-11181Y42800D01*
X-11160Y42720D01*
X-11143Y42638D01*
X-11129Y42556D01*
X-11120Y42473D01*
X-11114Y42390D01*
X-11112Y42307D01*
X-11114Y42224D01*
X-11120Y42141D01*
X-11129Y42058D01*
X-11143Y41976D01*
X-11160Y41894D01*
X-11181Y41814D01*
X-11205Y41734D01*
X-11234Y41656D01*
X-11266Y41579D01*
X-11301Y41503D01*
X-11340Y41430D01*
X-11382Y41358D01*
X-11428Y41288D01*
X-11476Y41220D01*
X-11528Y41155D01*
X-11583Y41092D01*
X-11640Y41032D01*
X-11700Y40975D01*
X-11763Y40920D01*
X-11828Y40868D01*
X-11896Y40820D01*
X-11966Y40774D01*
X-12038Y40732D01*
X-12111Y40693D01*
X-12187Y40658D01*
X-12264Y40626D01*
X-12342Y40597D01*
X-12422Y40573D01*
X-12502Y40552D01*
X-12584Y40535D01*
X-12666Y40521D01*
X-12749Y40512D01*
X-12832Y40506D01*
X-12915Y40504D01*
X-12998Y40506D01*
X-13081Y40512D01*
X-13164Y40521D01*
X-13246Y40535D01*
X-13328Y40552D01*
X-13408Y40573D01*
X-13488Y40597D01*
X-13566Y40626D01*
X-13643Y40658D01*
X-13719Y40693D01*
X-13792Y40732D01*
X-13864Y40774D01*
X-13934Y40820D01*
X-14002Y40868D01*
X-14067Y40920D01*
X-14130Y40975D01*
X-14190Y41032D01*
X-14247Y41092D01*
X-14302Y41155D01*
X-14354Y41220D01*
X-14402Y41288D01*
X-14448Y41358D01*
X-14490Y41430D01*
X-14529Y41503D01*
X-14564Y41579D01*
X-14596Y41656D01*
X-14625Y41734D01*
X-14649Y41814D01*
X-14670Y41894D01*
X-14687Y41976D01*
X-14701Y42058D01*
X-14710Y42141D01*
X-14716Y42224D01*
X-14718Y42307D01*
X-14358Y45553D02*
X-14356Y45629D01*
X-14350Y45704D01*
X-14340Y45779D01*
X-14326Y45853D01*
X-14309Y45926D01*
X-14287Y45999D01*
X-14262Y46070D01*
X-14233Y46140D01*
X-14201Y46208D01*
X-14165Y46275D01*
X-14125Y46339D01*
X-14082Y46401D01*
X-14036Y46461D01*
X-13987Y46519D01*
X-13935Y46573D01*
X-13881Y46625D01*
X-13823Y46674D01*
X-13763Y46720D01*
X-13701Y46763D01*
X-13637Y46803D01*
X-13570Y46839D01*
X-13502Y46871D01*
X-13432Y46900D01*
X-13361Y46925D01*
X-13288Y46947D01*
X-13215Y46964D01*
X-13141Y46978D01*
X-13066Y46988D01*
X-12991Y46994D01*
X-12915Y46996D01*
X-12839Y46994D01*
X-12764Y46988D01*
X-12689Y46978D01*
X-12615Y46964D01*
X-12542Y46947D01*
X-12469Y46925D01*
X-12398Y46900D01*
X-12328Y46871D01*
X-12260Y46839D01*
X-12194Y46803D01*
X-12129Y46763D01*
X-12067Y46720D01*
X-12007Y46674D01*
X-11949Y46625D01*
X-11895Y46573D01*
X-11843Y46519D01*
X-11794Y46461D01*
X-11748Y46401D01*
X-11705Y46339D01*
X-11665Y46275D01*
X-11629Y46208D01*
X-11597Y46140D01*
X-11568Y46070D01*
X-11543Y45999D01*
X-11521Y45926D01*
X-11504Y45853D01*
X-11490Y45779D01*
X-11480Y45704D01*
X-11474Y45629D01*
X-11472Y45553D01*
X-11474Y45477D01*
X-11480Y45402D01*
X-11490Y45327D01*
X-11504Y45253D01*
X-11521Y45180D01*
X-11543Y45107D01*
X-11568Y45036D01*
X-11597Y44966D01*
X-11629Y44898D01*
X-11665Y44832D01*
X-11705Y44767D01*
X-11748Y44705D01*
X-11794Y44645D01*
X-11843Y44587D01*
X-11895Y44533D01*
X-11949Y44481D01*
X-12007Y44432D01*
X-12067Y44386D01*
X-12129Y44343D01*
X-12193Y44303D01*
X-12260Y44267D01*
X-12328Y44235D01*
X-12398Y44206D01*
X-12469Y44181D01*
X-12542Y44159D01*
X-12615Y44142D01*
X-12689Y44128D01*
X-12764Y44118D01*
X-12839Y44112D01*
X-12915Y44110D01*
X-12991Y44112D01*
X-13066Y44118D01*
X-13141Y44128D01*
X-13215Y44142D01*
X-13288Y44159D01*
X-13361Y44181D01*
X-13432Y44206D01*
X-13502Y44235D01*
X-13570Y44267D01*
X-13637Y44303D01*
X-13701Y44343D01*
X-13763Y44386D01*
X-13823Y44432D01*
X-13881Y44481D01*
X-13935Y44533D01*
X-13987Y44587D01*
X-14036Y44645D01*
X-14082Y44705D01*
X-14125Y44767D01*
X-14165Y44832D01*
X-14201Y44898D01*
X-14233Y44966D01*
X-14262Y45036D01*
X-14287Y45107D01*
X-14309Y45180D01*
X-14326Y45253D01*
X-14340Y45327D01*
X-14350Y45402D01*
X-14356Y45477D01*
X-14358Y45553D01*
X-8419Y43750D02*
X-8417Y43893D01*
X-8411Y44035D01*
X-8402Y44178D01*
X-8389Y44320D01*
X-8371Y44462D01*
X-8351Y44603D01*
X-8326Y44743D01*
X-8298Y44883D01*
X-8265Y45022D01*
X-8230Y45161D01*
X-8190Y45298D01*
X-8147Y45434D01*
X-8100Y45569D01*
X-8050Y45702D01*
X-7996Y45835D01*
X-7939Y45965D01*
X-7878Y46094D01*
X-7877Y46095D02*
X-7852Y46162D01*
X-7823Y46228D01*
X-7791Y46292D01*
X-7755Y46355D01*
X-7716Y46415D01*
X-7674Y46473D01*
X-7629Y46529D01*
X-7580Y46583D01*
X-7529Y46633D01*
X-7476Y46681D01*
X-7419Y46726D01*
X-7361Y46768D01*
X-7300Y46807D01*
X-7237Y46842D01*
X-7173Y46874D01*
X-7107Y46902D01*
X-7039Y46927D01*
X-6970Y46948D01*
X-6901Y46965D01*
X-6830Y46979D01*
X-6759Y46988D01*
X-6687Y46994D01*
X-6615Y46996D01*
X-6615Y46997D02*
X-6543Y46995D01*
X-6471Y46989D01*
X-6400Y46980D01*
X-6329Y46966D01*
X-6259Y46949D01*
X-6190Y46928D01*
X-6123Y46903D01*
X-6057Y46875D01*
X-5992Y46843D01*
X-5929Y46807D01*
X-5869Y46769D01*
X-5810Y46727D01*
X-5754Y46682D01*
X-5700Y46634D01*
X-5649Y46583D01*
X-5601Y46530D01*
X-5555Y46474D01*
X-5513Y46416D01*
X-5474Y46355D01*
X-5438Y46293D01*
X-5406Y46228D01*
X-5377Y46162D01*
X-5352Y46095D01*
X-5352Y46094D02*
X-5291Y45965D01*
X-5234Y45835D01*
X-5180Y45702D01*
X-5130Y45569D01*
X-5083Y45434D01*
X-5040Y45298D01*
X-5000Y45161D01*
X-4965Y45022D01*
X-4932Y44883D01*
X-4904Y44743D01*
X-4879Y44603D01*
X-4859Y44462D01*
X-4841Y44320D01*
X-4828Y44178D01*
X-4819Y44035D01*
X-4813Y43893D01*
X-4811Y43750D01*
X-8418Y43750D02*
X-8416Y43607D01*
X-8410Y43465D01*
X-8401Y43322D01*
X-8388Y43180D01*
X-8370Y43038D01*
X-8350Y42897D01*
X-8325Y42757D01*
X-8297Y42617D01*
X-8264Y42478D01*
X-8229Y42339D01*
X-8189Y42202D01*
X-8146Y42066D01*
X-8099Y41931D01*
X-8049Y41798D01*
X-7995Y41665D01*
X-7938Y41535D01*
X-7877Y41406D01*
X-7877Y41405D02*
X-7852Y41338D01*
X-7823Y41272D01*
X-7791Y41208D01*
X-7755Y41145D01*
X-7716Y41085D01*
X-7674Y41027D01*
X-7629Y40971D01*
X-7580Y40917D01*
X-7529Y40867D01*
X-7476Y40819D01*
X-7419Y40774D01*
X-7361Y40732D01*
X-7300Y40693D01*
X-7237Y40658D01*
X-7173Y40626D01*
X-7107Y40598D01*
X-7039Y40573D01*
X-6970Y40552D01*
X-6901Y40535D01*
X-6830Y40521D01*
X-6759Y40512D01*
X-6687Y40506D01*
X-6615Y40504D01*
X-5353Y41406D02*
X-5292Y41535D01*
X-5235Y41665D01*
X-5181Y41798D01*
X-5131Y41931D01*
X-5084Y42066D01*
X-5041Y42202D01*
X-5001Y42339D01*
X-4966Y42478D01*
X-4933Y42617D01*
X-4905Y42757D01*
X-4880Y42897D01*
X-4860Y43038D01*
X-4842Y43180D01*
X-4829Y43322D01*
X-4820Y43465D01*
X-4814Y43607D01*
X-4812Y43750D01*
X-5352Y41406D02*
X-5377Y41339D01*
X-5406Y41273D01*
X-5438Y41208D01*
X-5474Y41146D01*
X-5513Y41085D01*
X-5555Y41027D01*
X-5601Y40971D01*
X-5649Y40918D01*
X-5700Y40867D01*
X-5754Y40819D01*
X-5810Y40774D01*
X-5869Y40732D01*
X-5929Y40694D01*
X-5992Y40658D01*
X-6057Y40626D01*
X-6123Y40598D01*
X-6190Y40573D01*
X-6259Y40552D01*
X-6329Y40535D01*
X-6400Y40521D01*
X-6471Y40512D01*
X-6543Y40506D01*
X-6615Y40504D01*
X-8058Y41947D02*
X-5172Y45553D01*
X-2118Y40504D02*
X-315Y40504D01*
X-232Y40506D01*
X-149Y40512D01*
X-66Y40521D01*
X16Y40535D01*
X98Y40552D01*
X178Y40573D01*
X258Y40597D01*
X336Y40626D01*
X413Y40658D01*
X489Y40693D01*
X562Y40732D01*
X634Y40774D01*
X704Y40820D01*
X772Y40868D01*
X837Y40920D01*
X900Y40975D01*
X960Y41032D01*
X1017Y41092D01*
X1072Y41155D01*
X1124Y41220D01*
X1172Y41288D01*
X1218Y41358D01*
X1260Y41430D01*
X1299Y41503D01*
X1334Y41579D01*
X1366Y41656D01*
X1395Y41734D01*
X1419Y41814D01*
X1440Y41894D01*
X1457Y41976D01*
X1471Y42058D01*
X1480Y42141D01*
X1486Y42224D01*
X1488Y42307D01*
X1486Y42390D01*
X1480Y42473D01*
X1471Y42556D01*
X1457Y42638D01*
X1440Y42720D01*
X1419Y42800D01*
X1395Y42880D01*
X1366Y42958D01*
X1334Y43035D01*
X1299Y43111D01*
X1260Y43184D01*
X1218Y43256D01*
X1172Y43326D01*
X1124Y43394D01*
X1072Y43459D01*
X1017Y43522D01*
X960Y43582D01*
X900Y43639D01*
X837Y43694D01*
X772Y43746D01*
X704Y43794D01*
X634Y43840D01*
X562Y43882D01*
X489Y43921D01*
X413Y43956D01*
X336Y43988D01*
X258Y44017D01*
X178Y44041D01*
X98Y44062D01*
X16Y44079D01*
X-66Y44093D01*
X-149Y44102D01*
X-232Y44108D01*
X-315Y44110D01*
X46Y46996D02*
X-2118Y46996D01*
X46Y46996D02*
X122Y46994D01*
X197Y46988D01*
X272Y46978D01*
X346Y46964D01*
X419Y46947D01*
X492Y46925D01*
X563Y46900D01*
X633Y46871D01*
X701Y46839D01*
X767Y46803D01*
X832Y46763D01*
X894Y46720D01*
X954Y46674D01*
X1012Y46625D01*
X1066Y46573D01*
X1118Y46519D01*
X1167Y46461D01*
X1213Y46401D01*
X1256Y46339D01*
X1296Y46275D01*
X1332Y46208D01*
X1364Y46140D01*
X1393Y46070D01*
X1418Y45999D01*
X1440Y45926D01*
X1457Y45853D01*
X1471Y45779D01*
X1481Y45704D01*
X1487Y45629D01*
X1489Y45553D01*
X1487Y45477D01*
X1481Y45402D01*
X1471Y45327D01*
X1457Y45253D01*
X1440Y45180D01*
X1418Y45107D01*
X1393Y45036D01*
X1364Y44966D01*
X1332Y44898D01*
X1296Y44832D01*
X1256Y44767D01*
X1213Y44705D01*
X1167Y44645D01*
X1118Y44587D01*
X1066Y44533D01*
X1012Y44481D01*
X954Y44432D01*
X894Y44386D01*
X832Y44343D01*
X768Y44303D01*
X701Y44267D01*
X633Y44235D01*
X563Y44206D01*
X492Y44181D01*
X419Y44159D01*
X346Y44142D01*
X272Y44128D01*
X197Y44118D01*
X122Y44112D01*
X46Y44110D01*
X46Y44111D02*
X-1397Y44111D01*
X4241Y43029D02*
X8569Y43029D01*
X11321Y43750D02*
X11323Y43893D01*
X11329Y44035D01*
X11338Y44178D01*
X11351Y44320D01*
X11369Y44462D01*
X11389Y44603D01*
X11414Y44743D01*
X11442Y44883D01*
X11475Y45022D01*
X11510Y45161D01*
X11550Y45298D01*
X11593Y45434D01*
X11640Y45569D01*
X11690Y45702D01*
X11744Y45835D01*
X11801Y45965D01*
X11862Y46094D01*
X11863Y46095D02*
X11888Y46162D01*
X11917Y46228D01*
X11949Y46292D01*
X11985Y46355D01*
X12024Y46415D01*
X12066Y46473D01*
X12111Y46529D01*
X12160Y46583D01*
X12211Y46633D01*
X12264Y46681D01*
X12321Y46726D01*
X12379Y46768D01*
X12440Y46807D01*
X12503Y46842D01*
X12567Y46874D01*
X12633Y46902D01*
X12701Y46927D01*
X12770Y46948D01*
X12839Y46965D01*
X12910Y46979D01*
X12981Y46988D01*
X13053Y46994D01*
X13125Y46996D01*
X13197Y46994D01*
X13269Y46988D01*
X13340Y46979D01*
X13411Y46965D01*
X13480Y46948D01*
X13549Y46927D01*
X13617Y46902D01*
X13683Y46874D01*
X13747Y46842D01*
X13810Y46807D01*
X13871Y46768D01*
X13929Y46726D01*
X13986Y46681D01*
X14039Y46633D01*
X14090Y46583D01*
X14139Y46529D01*
X14184Y46473D01*
X14226Y46415D01*
X14265Y46355D01*
X14301Y46292D01*
X14333Y46228D01*
X14362Y46162D01*
X14387Y46095D01*
X14387Y46094D02*
X14448Y45965D01*
X14505Y45835D01*
X14559Y45702D01*
X14609Y45569D01*
X14656Y45434D01*
X14699Y45298D01*
X14739Y45161D01*
X14774Y45022D01*
X14807Y44883D01*
X14835Y44743D01*
X14860Y44603D01*
X14880Y44462D01*
X14898Y44320D01*
X14911Y44178D01*
X14920Y44035D01*
X14926Y43893D01*
X14928Y43750D01*
X11322Y43750D02*
X11324Y43607D01*
X11330Y43465D01*
X11339Y43322D01*
X11352Y43180D01*
X11370Y43038D01*
X11390Y42897D01*
X11415Y42757D01*
X11443Y42617D01*
X11476Y42478D01*
X11511Y42339D01*
X11551Y42202D01*
X11594Y42066D01*
X11641Y41931D01*
X11691Y41798D01*
X11745Y41665D01*
X11802Y41535D01*
X11863Y41406D01*
X11863Y41405D02*
X11888Y41338D01*
X11917Y41272D01*
X11949Y41208D01*
X11985Y41145D01*
X12024Y41085D01*
X12066Y41027D01*
X12111Y40971D01*
X12160Y40917D01*
X12211Y40867D01*
X12264Y40819D01*
X12321Y40774D01*
X12379Y40732D01*
X12440Y40693D01*
X12503Y40658D01*
X12567Y40626D01*
X12633Y40598D01*
X12701Y40573D01*
X12770Y40552D01*
X12839Y40535D01*
X12910Y40521D01*
X12981Y40512D01*
X13053Y40506D01*
X13125Y40504D01*
X14387Y41406D02*
X14448Y41535D01*
X14505Y41665D01*
X14559Y41798D01*
X14609Y41931D01*
X14656Y42066D01*
X14699Y42202D01*
X14739Y42339D01*
X14774Y42478D01*
X14807Y42617D01*
X14835Y42757D01*
X14860Y42897D01*
X14880Y43038D01*
X14898Y43180D01*
X14911Y43322D01*
X14920Y43465D01*
X14926Y43607D01*
X14928Y43750D01*
X14387Y41405D02*
X14362Y41338D01*
X14333Y41272D01*
X14301Y41208D01*
X14265Y41145D01*
X14226Y41085D01*
X14184Y41027D01*
X14139Y40971D01*
X14090Y40917D01*
X14039Y40867D01*
X13986Y40819D01*
X13929Y40774D01*
X13871Y40732D01*
X13810Y40693D01*
X13747Y40658D01*
X13683Y40626D01*
X13617Y40598D01*
X13549Y40573D01*
X13480Y40552D01*
X13411Y40535D01*
X13340Y40521D01*
X13269Y40512D01*
X13197Y40506D01*
X13125Y40504D01*
X11682Y41947D02*
X14568Y45553D01*
X19605Y46996D02*
X19685Y46994D01*
X19764Y46988D01*
X19843Y46978D01*
X19922Y46965D01*
X19999Y46947D01*
X20076Y46926D01*
X20152Y46901D01*
X20226Y46872D01*
X20299Y46840D01*
X20370Y46804D01*
X20439Y46765D01*
X20507Y46722D01*
X20572Y46677D01*
X20635Y46628D01*
X20695Y46576D01*
X20753Y46521D01*
X20808Y46463D01*
X20860Y46403D01*
X20909Y46340D01*
X20954Y46275D01*
X20997Y46207D01*
X21036Y46138D01*
X21072Y46067D01*
X21104Y45994D01*
X21133Y45920D01*
X21158Y45844D01*
X21179Y45767D01*
X21197Y45690D01*
X21210Y45611D01*
X21220Y45532D01*
X21226Y45453D01*
X21228Y45373D01*
X19605Y46996D02*
X19515Y46994D01*
X19424Y46988D01*
X19335Y46978D01*
X19245Y46965D01*
X19156Y46947D01*
X19069Y46926D01*
X18982Y46901D01*
X18896Y46872D01*
X18812Y46839D01*
X18729Y46803D01*
X18648Y46763D01*
X18568Y46720D01*
X18491Y46673D01*
X18415Y46623D01*
X18342Y46570D01*
X18272Y46514D01*
X18203Y46455D01*
X18138Y46392D01*
X18075Y46327D01*
X18015Y46260D01*
X17958Y46190D01*
X17904Y46117D01*
X17853Y46042D01*
X17806Y45965D01*
X17762Y45886D01*
X17722Y45805D01*
X17685Y45723D01*
X17651Y45639D01*
X17621Y45553D01*
X20687Y44111D02*
X20743Y44166D01*
X20796Y44224D01*
X20846Y44284D01*
X20894Y44346D01*
X20938Y44411D01*
X20980Y44477D01*
X21019Y44545D01*
X21055Y44615D01*
X21087Y44686D01*
X21116Y44759D01*
X21142Y44833D01*
X21165Y44908D01*
X21184Y44984D01*
X21200Y45061D01*
X21212Y45138D01*
X21221Y45216D01*
X21226Y45295D01*
X21228Y45373D01*
X20687Y44111D02*
X17622Y40504D01*
X21228Y40504D01*
X24221Y44111D02*
X26024Y44111D01*
X26024Y44110D02*
X26107Y44108D01*
X26190Y44102D01*
X26273Y44093D01*
X26355Y44079D01*
X26437Y44062D01*
X26517Y44041D01*
X26597Y44017D01*
X26675Y43988D01*
X26752Y43956D01*
X26828Y43921D01*
X26901Y43882D01*
X26973Y43840D01*
X27043Y43794D01*
X27111Y43746D01*
X27176Y43694D01*
X27239Y43639D01*
X27299Y43582D01*
X27356Y43522D01*
X27411Y43459D01*
X27463Y43394D01*
X27511Y43326D01*
X27557Y43256D01*
X27599Y43184D01*
X27638Y43111D01*
X27673Y43035D01*
X27705Y42958D01*
X27734Y42880D01*
X27758Y42800D01*
X27779Y42720D01*
X27796Y42638D01*
X27810Y42556D01*
X27819Y42473D01*
X27825Y42390D01*
X27827Y42307D01*
X27825Y42224D01*
X27819Y42141D01*
X27810Y42058D01*
X27796Y41976D01*
X27779Y41894D01*
X27758Y41814D01*
X27734Y41734D01*
X27705Y41656D01*
X27673Y41579D01*
X27638Y41503D01*
X27599Y41430D01*
X27557Y41358D01*
X27511Y41288D01*
X27463Y41220D01*
X27411Y41155D01*
X27356Y41092D01*
X27299Y41032D01*
X27239Y40975D01*
X27176Y40920D01*
X27111Y40868D01*
X27043Y40820D01*
X26973Y40774D01*
X26901Y40732D01*
X26828Y40693D01*
X26752Y40658D01*
X26675Y40626D01*
X26597Y40597D01*
X26517Y40573D01*
X26437Y40552D01*
X26355Y40535D01*
X26273Y40521D01*
X26190Y40512D01*
X26107Y40506D01*
X26024Y40504D01*
X24221Y40504D01*
X24221Y46996D01*
X26024Y46996D01*
X26100Y46994D01*
X26175Y46988D01*
X26250Y46978D01*
X26324Y46964D01*
X26397Y46947D01*
X26470Y46925D01*
X26541Y46900D01*
X26611Y46871D01*
X26679Y46839D01*
X26745Y46803D01*
X26810Y46763D01*
X26872Y46720D01*
X26932Y46674D01*
X26990Y46625D01*
X27044Y46573D01*
X27096Y46519D01*
X27145Y46461D01*
X27191Y46401D01*
X27234Y46339D01*
X27274Y46275D01*
X27310Y46208D01*
X27342Y46140D01*
X27371Y46070D01*
X27396Y45999D01*
X27418Y45926D01*
X27435Y45853D01*
X27449Y45779D01*
X27459Y45704D01*
X27465Y45629D01*
X27467Y45553D01*
X27465Y45477D01*
X27459Y45402D01*
X27449Y45327D01*
X27435Y45253D01*
X27418Y45180D01*
X27396Y45107D01*
X27371Y45036D01*
X27342Y44966D01*
X27310Y44898D01*
X27274Y44832D01*
X27234Y44767D01*
X27191Y44705D01*
X27145Y44645D01*
X27096Y44587D01*
X27044Y44533D01*
X26990Y44481D01*
X26932Y44432D01*
X26872Y44386D01*
X26810Y44343D01*
X26746Y44303D01*
X26679Y44267D01*
X26611Y44235D01*
X26541Y44206D01*
X26470Y44181D01*
X26397Y44159D01*
X26324Y44142D01*
X26250Y44128D01*
X26175Y44118D01*
X26100Y44112D01*
X26024Y44110D01*
X29861Y40504D02*
X32025Y46996D01*
X34189Y40504D01*
X33648Y42127D02*
X30402Y42127D01*
M02*
